<svg xmlns="http://www.w3.org/2000/svg" width="260" height="260" viewBox="0 0 260 260">
  <g id="Group_12" data-name="Group 12" transform="translate(-738 -399)">
    <rect id="Rectangle_14" data-name="Rectangle 14" width="260" height="260" transform="translate(738 399)" fill="#4d9287"/>
    <path id="Logo" d="M-986.811,248.215a83.489,83.489,0,0,1-17.593-4.809,28.843,28.843,0,0,1-10.164-6.664,17.269,17.269,0,0,1-4.373-8.855,55.929,55.929,0,0,1-.655-11.364q.214-6.333.982-14.1t.982-17.155V171.5q0-4.667-.079-9.372a25.447,25.447,0,0,1-3.739,5.8q-4.708,5.464-13.01,7.327t-20.764-1.645A36.691,36.691,0,0,1-1065.5,168.8a85.442,85.442,0,0,1-11.692-8.955,95.116,95.116,0,0,1-10.709-11.473,48.268,48.268,0,0,1-7.319-12.464,22.813,22.813,0,0,1-1.427-12.128q.982-5.9,6.89-10.491a18.132,18.132,0,0,1,3.6-1.754,26.081,26.081,0,0,1,5.463-1.528,6.014,6.014,0,0,1,4.373.655q1.637,1.1.545,4.591-7.64,3.286-9.608,8.527a15.839,15.839,0,0,0,.108,11.146,36.693,36.693,0,0,0,7.211,11.8,67.492,67.492,0,0,0,11.691,10.6,73.269,73.269,0,0,0,13.664,7.764,33.576,33.576,0,0,0,13.219,3.055,16.156,16.156,0,0,0,10.382-3.382q4.269-3.387,4.919-11.7A78.569,78.569,0,0,0-1025.6,132.3a47.2,47.2,0,0,0-8.855-19.01,66.266,66.266,0,0,0-11.691-11.8,115.525,115.525,0,0,0-12.019-8.091q-6.017-3.5-12.027-6.555a86.407,86.407,0,0,1-11.583-7.109,61.268,61.268,0,0,1-10.382-9.61,59.91,59.91,0,0,1-8.737-14.1q-5.036-11.154-2.955-20.874a33.359,33.359,0,0,1,8.745-16.61A41.11,41.11,0,0,1-1078.5,8.266a45.966,45.966,0,0,1,20.656-2.081,25.167,25.167,0,0,1,12.02,5.027,38.521,38.521,0,0,1,9.073,9.728,34.959,34.959,0,0,1,4.918,11.692,19.183,19.183,0,0,1-.437,10.827,12.211,12.211,0,0,1-7.109,6.991q-5.351,2.291-14.973.546c-.722-2.476-.437-4.373.881-5.682a25.734,25.734,0,0,1,4.583-3.609q2.629-1.637,4.808-3.273a4.631,4.631,0,0,0,1.754-4.7q-1.75-10.714-8.091-15.41a22.493,22.493,0,0,0-14.1-4.591A31.06,31.06,0,0,0-1079.7,18.1a29.921,29.921,0,0,0-11.482,11.473,27.056,27.056,0,0,0-2.947,16.719q1.1,9.505,10.492,20.219a63.569,63.569,0,0,0,13.328,12.128q6.346,4.041,12.573,7.218,6.232,3.16,12.782,7.1a63.958,63.958,0,0,1,13.773,11.8l.3.34a22.975,22.975,0,0,1,3.741-4.965,59.322,59.322,0,0,1,13.547-10.055,100,100,0,0,1,19.345-8.309,106.866,106.866,0,0,1,22.51-4.474,71.043,71.043,0,0,1,22.954,1.528q12.892,0,17.483,4.373a12.888,12.888,0,0,1,4.045,10.928,39.323,39.323,0,0,1-4.59,14.428,129.58,129.58,0,0,1-8.747,14.637q-4.695,6.786-8.409,11.7c-2.485,3.273-3.576,5.137-3.282,5.573q21.642,2.619,34.973,9.283t19.775,15.519a33.472,33.472,0,0,1,6.672,19.346,45.84,45.84,0,0,1-4.481,20.546,67.891,67.891,0,0,1-13.773,19.128,83.958,83.958,0,0,1-21.2,15.3,95.013,95.013,0,0,1-26.555,8.846,78.431,78.431,0,0,1-14.1,1.262A87.767,87.767,0,0,1-986.811,248.215Zm-8.52-41.311v1.754l-10.273,15.519q-1.094,1.523.219,3.492a19.183,19.183,0,0,0,3.273,3.718,41.373,41.373,0,0,0,4.046,3.173,15.77,15.77,0,0,0,2.736,1.637q18.8,6.773,36.61,5.355t31.366-9.618a56.814,56.814,0,0,0,21.091-22.4q7.542-14.214,5.574-32.783a23.724,23.724,0,0,0-8.091-11.918,44.678,44.678,0,0,0-12.456-7.1q-14.428-5.678-24.373-6.009t-17.046,2.619a38.413,38.413,0,0,0-12.238,7.982q-5.137,5.023-10.055,9.837a56.688,56.688,0,0,1-10.6,8.192,24.664,24.664,0,0,1-13.555,3.173V212.15c.294.294.981.109,2.073-.546s2.332-1.343,3.718-2.073a45.525,45.525,0,0,1,4.263-1.972,8.543,8.543,0,0,1,3.086-.7A4.557,4.557,0,0,1-995.331,206.9ZM-977.3,87.463a69.553,69.553,0,0,0-14.537,3.382,41.59,41.59,0,0,0-11.8,6.337,21.068,21.068,0,0,0-6.99,9.182c0,1.754.067,4.079.217,7s.328,5.934.546,9.064.4,6.194.546,9.182.218,5.355.218,7.1c0,1.167.075,3.139.217,5.9s.328,5.724.547,8.855.4,6.085.545,8.855.294,4.658.436,5.682a58.455,58.455,0,0,1,13.009-10.71q7.755-4.809,16.172-9.4t16.5-9.509a67.152,67.152,0,0,0,13.992-11.146,39.818,39.818,0,0,0,8.737-14.209q2.845-7.969.663-18.683a26.044,26.044,0,0,0-10.054-5.137,61.79,61.79,0,0,0-13.773-2.3q-2.277-.131-4.586-.132A83.334,83.334,0,0,0-977.3,87.463Zm-43.6,32.708q1.243,2.584,2.24,5.187-.1-4.035-.276-6.748c-.143-2.333-.218-3.575-.218-3.718l-1.746-1.754a16.87,16.87,0,0,1-2.081,2.627c-.049.053-.1.1-.148.153Q-1021.957,117.984-1020.9,120.17Z" transform="translate(1865.46 401.18)" fill="#fefcf8"/>
  </g>
</svg>
