<svg xmlns="http://www.w3.org/2000/svg" width="703.285" height="622.301" viewBox="0 0 703.285 622.301">
  <g id="Group_1" data-name="Group 1" transform="translate(-492.358 -232.699)">
    <path id="Polygon_1" data-name="Polygon 1" d="M119.5,0,239,201H0Z" transform="translate(492.358 386.326) rotate(-40)" fill="#fff"/>
    <path id="Polygon_1_-_Outline" data-name="Polygon 1 - Outline" d="M119.5,1.957,1.758,200H237.242L119.5,1.957M119.5,0,239,201H0Z" transform="translate(492.358 386.326) rotate(-40)" fill="#707070"/>
    <path id="Polygon_2" data-name="Polygon 2" d="M119.5,0,239,201H0Z" transform="translate(1012.558 232.699) rotate(40)" fill="#fff"/>
    <path id="Polygon_2_-_Outline" data-name="Polygon 2 - Outline" d="M119.5,1.957,1.758,200H237.242L119.5,1.957M119.5,0,239,201H0Z" transform="translate(1012.558 232.699) rotate(40)" fill="#707070"/>
    <circle id="Ellipse_1" data-name="Ellipse 1" cx="239" cy="239" r="239" transform="translate(606 377)" fill="#fff"/>
    <path id="Ellipse_1_-_Outline" data-name="Ellipse 1 - Outline" d="M239,1a239.76,239.76,0,0,0-47.966,4.835,236.69,236.69,0,0,0-85.1,35.811A238.7,238.7,0,0,0,19.7,146.36,236.793,236.793,0,0,0,5.835,191.034a240.329,240.329,0,0,0,0,95.933,236.691,236.691,0,0,0,35.811,85.1A238.7,238.7,0,0,0,146.36,458.3a236.793,236.793,0,0,0,44.674,13.867,240.329,240.329,0,0,0,95.933,0,236.691,236.691,0,0,0,85.1-35.811A238.7,238.7,0,0,0,458.3,331.64a236.794,236.794,0,0,0,13.867-44.674,240.329,240.329,0,0,0,0-95.933,236.69,236.69,0,0,0-35.811-85.1A238.7,238.7,0,0,0,331.64,19.7,236.794,236.794,0,0,0,286.966,5.835,239.761,239.761,0,0,0,239,1m0-1C371,0,478,107,478,239S371,478,239,478,0,371,0,239,107,0,239,0Z" transform="translate(606 377)" fill="#707070"/>
    <path id="Path_2" data-name="Path 2" d="M41.5,3A36.154,36.154,0,0,0,26.654,6.451a59.868,59.868,0,0,0-12.519,7.807A81.351,81.351,0,0,0,3.916,24a81.35,81.35,0,0,0,10.22,9.742,59.868,59.868,0,0,0,12.519,7.807A36.154,36.154,0,0,0,41.5,45a36.154,36.154,0,0,0,14.846-3.451,59.868,59.868,0,0,0,12.519-7.807A81.351,81.351,0,0,0,79.084,24a81.35,81.35,0,0,0-10.22-9.742A59.868,59.868,0,0,0,56.346,6.451,36.154,36.154,0,0,0,41.5,3m0-3C64.42,0,83,24,83,24S64.42,48,41.5,48,0,24,0,24,18.58,0,41.5,0Z" transform="matrix(0.985, -0.174, 0.174, 0.985, 872.463, 518.571)"/>
    <path id="Path_1" data-name="Path 1" d="M41.5,0C64.42,0,83,24,83,24S64.42,48,41.5,48,0,24,0,24,18.58,0,41.5,0Z" transform="matrix(0.985, 0.174, -0.174, 0.985, 733.798, 504.158)" fill="#fff"/>
    <path id="Path_1_-_Outline" data-name="Path 1 - Outline" d="M41.5,3A36.154,36.154,0,0,0,26.654,6.451a59.868,59.868,0,0,0-12.519,7.807A81.351,81.351,0,0,0,3.916,24a81.35,81.35,0,0,0,10.22,9.742,59.868,59.868,0,0,0,12.519,7.807A36.154,36.154,0,0,0,41.5,45a36.154,36.154,0,0,0,14.846-3.451,59.868,59.868,0,0,0,12.519-7.807A81.351,81.351,0,0,0,79.084,24a81.35,81.35,0,0,0-10.22-9.742A59.868,59.868,0,0,0,56.346,6.451,36.154,36.154,0,0,0,41.5,3m0-3C64.42,0,83,24,83,24S64.42,48,41.5,48,0,24,0,24,18.58,0,41.5,0Z" transform="matrix(0.985, 0.174, -0.174, 0.985, 733.798, 504.158)"/>
    <path id="Polygon_3" data-name="Polygon 3" d="M14.406,19.918a12,12,0,0,1,21.189,0l5.025,9.447A12,12,0,0,1,30.025,47H19.975A12,12,0,0,1,9.381,29.365Z" transform="translate(870 640) rotate(180)" fill="#fbdede"/>
    <path id="Path_3" data-name="Path 3" d="M811.868,687.767q-1.947,0-3.775-.116a38.127,38.127,0,0,1-11.037-2.184,31.1,31.1,0,0,1-9.008-5.427,44.1,44.1,0,0,1-6.458-6.853,47.724,47.724,0,0,1-5.218-8.387l.91-.414A47.7,47.7,0,0,0,782.4,672.6c3.079,4.014,8.182,9.342,15.012,11.933,6.858,2.6,15.485,2.46,21.515,1.883a84.909,84.909,0,0,0,11.576-1.9l.068-.017.07,0h0c.044,0,2.2-.022,4.781-2.7,3-3.111,5.339-8.364,6.941-15.612,2.2-9.959,2.92-23.439,2.14-40.067l1-.047c.788,16.792.05,30.406-2.192,40.465a48,48,0,0,1-3.421,10.354,21.39,21.39,0,0,1-3.823,5.681c-2.648,2.7-4.921,2.909-5.373,2.923a86.817,86.817,0,0,1-11.669,1.912C816.538,687.648,814.145,687.767,811.868,687.767Z" fill="#707070"/>
    <path id="Path_4" data-name="Path 4" d="M810.265,687.767c-2.277,0-4.67-.119-7.152-.356a86.817,86.817,0,0,1-11.669-1.912c-.452-.014-2.725-.221-5.373-2.923a21.39,21.39,0,0,1-3.823-5.681,48,48,0,0,1-3.421-10.354c-2.242-10.059-2.98-23.673-2.192-40.465l1,.047c-.78,16.628-.06,30.108,2.14,40.067,1.6,7.249,3.936,12.5,6.941,15.612,2.579,2.67,4.729,2.7,4.784,2.7h0l.07,0,.064.017a85.012,85.012,0,0,0,11.592,1.9c6.025.575,14.645.715,21.5-1.884,6.838-2.594,11.946-7.932,15.027-11.953a47.57,47.57,0,0,0,5.1-8.193l.91.414a47.724,47.724,0,0,1-5.218,8.387,44.1,44.1,0,0,1-6.458,6.853,31.1,31.1,0,0,1-9.008,5.427,38.127,38.127,0,0,1-11.037,2.184Q812.214,687.767,810.265,687.767Z" transform="translate(68.479)" fill="#707070"/>
    <ellipse id="Ellipse_2" data-name="Ellipse 2" cx="4.5" cy="23.5" rx="4.5" ry="23.5" transform="translate(765 511)"/>
    <ellipse id="Ellipse_3" data-name="Ellipse 3" cx="4.5" cy="23.5" rx="4.5" ry="23.5" transform="translate(914 511)"/>
    <path id="brow_1" data-name="brow 1" d="M.124,30.484l-.248-.969,117-30,.248.969Z" transform="translate(694.5 476.5)" fill="#707070"/>
    <path id="brow_2" data-name="brow 2" d="M110,1.5,0,.5,0-.5l110,1Z" transform="translate(880.5 496.5)" fill="#707070"/>
  </g>
</svg>
