<svg xmlns="http://www.w3.org/2000/svg" width="49.714" height="56.756" viewBox="0 0 49.714 56.756">
  <path id="Logo" d="M-1077.079,62.231a19.436,19.436,0,0,1-4.095-1.119,6.709,6.709,0,0,1-2.365-1.551,4.017,4.017,0,0,1-1.018-2.061,13.011,13.011,0,0,1-.152-2.645q.049-1.474.228-3.281t.229-3.992v-3.2q0-1.086-.018-2.181a5.932,5.932,0,0,1-.87,1.349,5.422,5.422,0,0,1-3.028,1.705,10.114,10.114,0,0,1-4.832-.383,8.531,8.531,0,0,1-2.391-1.119,19.839,19.839,0,0,1-2.721-2.084A22.108,22.108,0,0,1-1100.6,39a11.232,11.232,0,0,1-1.7-2.9,5.314,5.314,0,0,1-.332-2.822,3.916,3.916,0,0,1,1.6-2.442,4.217,4.217,0,0,1,.838-.408,6.071,6.071,0,0,1,1.272-.356,1.4,1.4,0,0,1,1.018.152q.381.255.127,1.068a3.776,3.776,0,0,0-2.236,1.985,3.687,3.687,0,0,0,.025,2.594,8.543,8.543,0,0,0,1.678,2.746,15.711,15.711,0,0,0,2.721,2.467,17.048,17.048,0,0,0,3.18,1.807,7.813,7.813,0,0,0,3.076.711,3.76,3.76,0,0,0,2.416-.787,3.68,3.68,0,0,0,1.145-2.723,18.291,18.291,0,0,0-.33-4.832,10.986,10.986,0,0,0-2.061-4.424,15.419,15.419,0,0,0-2.72-2.746,26.9,26.9,0,0,0-2.8-1.883q-1.4-.815-2.8-1.526a20.118,20.118,0,0,1-2.7-1.654,14.267,14.267,0,0,1-2.416-2.236,13.939,13.939,0,0,1-2.033-3.281,7.735,7.735,0,0,1-.688-4.858,7.767,7.767,0,0,1,2.035-3.866,9.57,9.57,0,0,1,3.866-2.391,10.7,10.7,0,0,1,4.807-.484,5.856,5.856,0,0,1,2.8,1.17,8.965,8.965,0,0,1,2.112,2.264,8.138,8.138,0,0,1,1.144,2.721,4.463,4.463,0,0,1-.1,2.52,2.843,2.843,0,0,1-1.655,1.627,6.237,6.237,0,0,1-3.484.127,1.252,1.252,0,0,1,.205-1.322,5.987,5.987,0,0,1,1.067-.84q.612-.381,1.119-.762a1.077,1.077,0,0,0,.408-1.094,5.293,5.293,0,0,0-1.883-3.586,5.235,5.235,0,0,0-3.281-1.068,7.229,7.229,0,0,0-3.534,1.018,6.965,6.965,0,0,0-2.672,2.67,6.3,6.3,0,0,0-.686,3.891,8.958,8.958,0,0,0,2.442,4.705,14.8,14.8,0,0,0,3.1,2.822q1.477.94,2.926,1.68t2.975,1.652a14.89,14.89,0,0,1,3.206,2.746l.071.079a5.341,5.341,0,0,1,.871-1.155,13.81,13.81,0,0,1,3.152-2.34,23.284,23.284,0,0,1,4.5-1.934,24.875,24.875,0,0,1,5.239-1.041,16.532,16.532,0,0,1,5.342.355q3,0,4.069,1.018a3,3,0,0,1,.941,2.543,9.143,9.143,0,0,1-1.068,3.358,30.169,30.169,0,0,1-2.036,3.407q-1.092,1.579-1.957,2.723c-.578.762-.832,1.2-.764,1.3a25.18,25.18,0,0,1,8.139,2.16,12.419,12.419,0,0,1,4.6,3.612,7.79,7.79,0,0,1,1.553,4.5,10.674,10.674,0,0,1-1.043,4.782A15.8,15.8,0,0,1-1059,56.662a19.531,19.531,0,0,1-4.934,3.561,22.111,22.111,0,0,1-6.18,2.059,18.253,18.253,0,0,1-3.281.294A20.418,20.418,0,0,1-1077.079,62.231Zm-1.983-9.614v.408l-2.391,3.612a.666.666,0,0,0,.051.813,4.463,4.463,0,0,0,.762.865,9.568,9.568,0,0,0,.941.738,3.675,3.675,0,0,0,.636.381,20.21,20.21,0,0,0,8.52,1.246,16.424,16.424,0,0,0,7.3-2.238,13.222,13.222,0,0,0,4.908-5.213,13.012,13.012,0,0,0,1.3-7.629,5.522,5.522,0,0,0-1.883-2.774,10.4,10.4,0,0,0-2.9-1.652,17.691,17.691,0,0,0-5.672-1.4,9.5,9.5,0,0,0-3.967.609,8.936,8.936,0,0,0-2.848,1.858l-2.34,2.289a13.176,13.176,0,0,1-2.467,1.906,5.739,5.739,0,0,1-3.154.738v6.663c.068.068.228.025.482-.127s.543-.313.866-.482a10.564,10.564,0,0,1,.992-.459,1.988,1.988,0,0,1,.718-.162A1.058,1.058,0,0,1-1079.063,52.617Zm4.2-27.8a16.188,16.188,0,0,0-3.383.787A9.683,9.683,0,0,0-1081,27.082a4.9,4.9,0,0,0-1.627,2.137c0,.408.016.949.051,1.629s.076,1.381.127,2.11.094,1.442.127,2.137.051,1.246.051,1.652c0,.272.018.731.051,1.373s.076,1.332.127,2.061.094,1.416.126,2.061.069,1.084.1,1.322a13.6,13.6,0,0,1,3.028-2.492q1.8-1.119,3.763-2.188t3.84-2.213a15.643,15.643,0,0,0,3.257-2.594,9.27,9.27,0,0,0,2.033-3.307,8.063,8.063,0,0,0,.154-4.348,6.06,6.06,0,0,0-2.34-1.2,14.38,14.38,0,0,0-3.205-.535q-.53-.031-1.068-.031A19.394,19.394,0,0,0-1074.867,24.82Zm-10.147,7.612q.289.6.521,1.207-.023-.939-.064-1.57c-.033-.543-.051-.832-.051-.865l-.406-.408a3.947,3.947,0,0,1-.484.611l-.035.036Q-1085.259,31.923-1085.014,32.432Z" transform="translate(1104.459 -5.82)" fill="#fefcf8"/>
</svg>
