<svg xmlns="http://www.w3.org/2000/svg" width="173.926" height="27.623" viewBox="0 0 173.926 27.623">
  <g transform="translate(-527.041 -432.95)">
    <path id="Path_1" data-name="Path 1" d="M6.82-.187A3.97,3.97,0,0,1,5.719-.7a9.1,9.1,0,0,1-1.254-.961,10.1,10.1,0,0,1-1.148-1.23A5.186,5.186,0,0,1,2.531-4.23a2.447,2.447,0,0,1-.152-1.3,1.806,1.806,0,0,1,.738-1.125A1.959,1.959,0,0,1,3.5-6.844a2.742,2.742,0,0,1,.586-.164.642.642,0,0,1,.469.07q.176.117.059.492a1.739,1.739,0,0,0-1.031.914,1.7,1.7,0,0,0,.012,1.2A3.951,3.951,0,0,0,4.371-3.07,7.264,7.264,0,0,0,5.625-1.934,7.828,7.828,0,0,0,7.09-1.1a3.6,3.6,0,0,0,1.418.328,1.733,1.733,0,0,0,1.113-.363,1.7,1.7,0,0,0,.527-1.254A8.419,8.419,0,0,0,10-4.617a5.057,5.057,0,0,0-.949-2.039A7.13,7.13,0,0,0,7.793-7.922,12.419,12.419,0,0,0,6.5-8.789q-.645-.375-1.289-.7a9.293,9.293,0,0,1-1.242-.762,6.558,6.558,0,0,1-1.113-1.031A6.427,6.427,0,0,1,1.922-12.8a3.567,3.567,0,0,1-.316-2.238,3.58,3.58,0,0,1,.938-1.781,4.413,4.413,0,0,1,1.781-1.1,4.925,4.925,0,0,1,2.215-.223,2.687,2.687,0,0,1,1.289.539A4.105,4.105,0,0,1,8.8-16.559,3.738,3.738,0,0,1,9.328-15.3a2.053,2.053,0,0,1-.047,1.16,1.31,1.31,0,0,1-.762.75,2.872,2.872,0,0,1-1.605.059.577.577,0,0,1,.094-.609,2.763,2.763,0,0,1,.492-.387q.281-.176.516-.352a.5.5,0,0,0,.188-.5,2.441,2.441,0,0,0-.867-1.652,2.419,2.419,0,0,0-1.512-.492,3.335,3.335,0,0,0-1.629.469,3.21,3.21,0,0,0-1.23,1.23,2.9,2.9,0,0,0-.316,1.793,4.126,4.126,0,0,0,1.125,2.168,6.813,6.813,0,0,0,1.43,1.3q.68.434,1.348.773t1.371.762A6.873,6.873,0,0,1,9.4-7.57a6.929,6.929,0,0,1,1.1,1.652,6.8,6.8,0,0,1,.6,1.875,5.379,5.379,0,0,1,0,1.8A2.957,2.957,0,0,1,10.441-.8a2.492,2.492,0,0,1-1.395.785A4.655,4.655,0,0,1,6.82-.187ZM13.2-.867a3.314,3.314,0,0,1-.75-1.43,11.233,11.233,0,0,1-.387-2.18,18.868,18.868,0,0,1-.035-2.59,19.818,19.818,0,0,1,.316-2.672A15.473,15.473,0,0,1,13-12.164,6.452,6.452,0,0,1,14-14.027a2.745,2.745,0,0,1,1.359-.961,2.252,2.252,0,0,1,1.7.27,2.63,2.63,0,0,1,.691.633,8.263,8.263,0,0,1,.691,1,10.614,10.614,0,0,1,.574,1.1,8.772,8.772,0,0,1,.363.926,5.278,5.278,0,0,1,.012.715q-.012.6-.035,1.441t.012,1.863q.035,1.02.164,1.992a9.544,9.544,0,0,0,.41,1.8,3.414,3.414,0,0,0,.75,1.313,1.708,1.708,0,0,0,1.184.516,3.3,3.3,0,0,0,1.746-.574,1.272,1.272,0,0,0,.445-.645,2.55,2.55,0,0,0,.07-.539.6.6,0,0,1,.047-.293q.047-.07.422.117a1.516,1.516,0,0,1,.316,1.3,2.44,2.44,0,0,1-.68,1.219,2.958,2.958,0,0,1-1.324.75,2.5,2.5,0,0,1-1.629-.105,3.788,3.788,0,0,1-1.582-1.336,7.953,7.953,0,0,1-1.2-2.93,8.964,8.964,0,0,1-.434.984A10.2,10.2,0,0,1,17.391-2.3a8.053,8.053,0,0,1-.9,1.1,3.717,3.717,0,0,1-1.043.773,2.053,2.053,0,0,1-1.113.2A1.88,1.88,0,0,1,13.2-.867Zm.211-1.477q.4.844.938.914a1.4,1.4,0,0,0,1.1-.422,5.788,5.788,0,0,0,1.113-1.43A10.794,10.794,0,0,0,17.5-5.4a15.581,15.581,0,0,0,.586-2.484,9.628,9.628,0,0,0,.07-2.5,6.355,6.355,0,0,0-.621-2.18,3.579,3.579,0,0,0-1.5-1.547.114.114,0,0,0-.082-.023h-.105a3.071,3.071,0,0,0-1.266,1.125,8.39,8.39,0,0,0-.926,1.875,13.613,13.613,0,0,0-.6,2.32,16.48,16.48,0,0,0-.234,2.438,15.051,15.051,0,0,0,.117,2.262A6.1,6.1,0,0,0,13.406-2.344ZM40.523-.352a2.085,2.085,0,0,1-.117-.211,1.91,1.91,0,0,1-.117-.293q-.047-.152-.094-.27a.537.537,0,0,1-.047-.164q.023-.281.082-.867t.117-1.312q.059-.727.117-1.547t.059-1.559q0-.738-.059-1.348a2.745,2.745,0,0,0-.223-.937,1.679,1.679,0,0,0-.762-.8,2.871,2.871,0,0,0-1.09-.3,3.359,3.359,0,0,0-2.215.469,4.614,4.614,0,0,0-1.441,1.559,8.812,8.812,0,0,0-.879,2.168q-.316,1.2-.539,2.285t-.422,1.9a1.765,1.765,0,0,1-.5,1.02A.468.468,0,0,1,32-.445a.466.466,0,0,1-.258-.223,1.861,1.861,0,0,1-.176-.4,2.336,2.336,0,0,1-.094-.41q.023-.867.129-2.109t.152-2.555q.047-1.312-.012-2.52a6.826,6.826,0,0,0-.363-2.027q-.352-.984-.75-1.172a.716.716,0,0,0-.82.188,3.99,3.99,0,0,0-.832,1.2A17.608,17.608,0,0,0,28.2-8.625q-.375,1.031-.7,2.156t-.574,2.121q-.246,1-.41,1.723t-.187.961q-.07.469-.375.492a.8.8,0,0,1-.586-.211,1.2,1.2,0,0,1-.387-.633.765.765,0,0,1,.223-.75q.023-.4.023-1.219T25.2-5.836q-.023-1.031-.035-2.18t-.012-2.2q0-1.055.035-1.91a13.15,13.15,0,0,1,.105-1.324q.047-.281.211-.316a.529.529,0,0,1,.352.059,1.039,1.039,0,0,1,.34.281,1.02,1.02,0,0,1,.2.352,5.578,5.578,0,0,1,.152.926q.035.457.059.914l.047.914a4.832,4.832,0,0,0,.141.926q.211-.445.563-1.078a10.2,10.2,0,0,1,.8-1.219,7.114,7.114,0,0,1,.949-1.031,2.135,2.135,0,0,1,1.008-.539,1.187,1.187,0,0,1,.973.27,3.231,3.231,0,0,1,.867,1.371,6.481,6.481,0,0,1,.223.832q.105.5.223,1.043a10.728,10.728,0,0,0,.281,1.043,2.726,2.726,0,0,0,.375.785,2.308,2.308,0,0,0,.691-.633q.293-.4.586-.832a9.332,9.332,0,0,1,.633-.832,2.685,2.685,0,0,1,.855-.656,5.656,5.656,0,0,1,2.871-.352,3.227,3.227,0,0,1,1.816,1,4.475,4.475,0,0,1,.973,1.9A10.637,10.637,0,0,1,41.8-5.977,14.066,14.066,0,0,1,41.672-3.6a13.17,13.17,0,0,1-.4,1.934l.164.188q.117.117.551-.164t.949-.633q.516-.352.984-.645t.656-.223v.375a3.969,3.969,0,0,0-.457.5q-.27.34-.609.715t-.727.738a3.8,3.8,0,0,1-.773.574,1.6,1.6,0,0,1-.773.211A1,1,0,0,1,40.523-.352Zm5.813-.516a3.314,3.314,0,0,1-.75-1.43,11.233,11.233,0,0,1-.387-2.18,18.868,18.868,0,0,1-.035-2.59,19.818,19.818,0,0,1,.316-2.672,15.473,15.473,0,0,1,.656-2.426,6.452,6.452,0,0,1,1.008-1.863,2.745,2.745,0,0,1,1.359-.961,2.252,2.252,0,0,1,1.7.27,2.63,2.63,0,0,1,.691.633,8.263,8.263,0,0,1,.691,1,10.614,10.614,0,0,1,.574,1.1,8.772,8.772,0,0,1,.363.926,5.278,5.278,0,0,1,.012.715q-.012.6-.035,1.441t.012,1.863q.035,1.02.164,1.992a9.544,9.544,0,0,0,.41,1.8,3.414,3.414,0,0,0,.75,1.313,1.708,1.708,0,0,0,1.184.516,3.3,3.3,0,0,0,1.746-.574,1.272,1.272,0,0,0,.445-.645,2.55,2.55,0,0,0,.07-.539.6.6,0,0,1,.047-.293q.047-.07.422.117a1.516,1.516,0,0,1,.316,1.3,2.44,2.44,0,0,1-.68,1.219,2.958,2.958,0,0,1-1.324.75,2.5,2.5,0,0,1-1.629-.105,3.788,3.788,0,0,1-1.582-1.336,7.953,7.953,0,0,1-1.2-2.93,8.964,8.964,0,0,1-.434.984A10.2,10.2,0,0,1,50.531-2.3a8.053,8.053,0,0,1-.9,1.1,3.717,3.717,0,0,1-1.043.773,2.053,2.053,0,0,1-1.113.2A1.88,1.88,0,0,1,46.336-.867Zm.211-1.477q.4.844.938.914a1.4,1.4,0,0,0,1.1-.422A5.788,5.788,0,0,0,49.7-3.281,10.794,10.794,0,0,0,50.637-5.4a15.581,15.581,0,0,0,.586-2.484,9.628,9.628,0,0,0,.07-2.5,6.355,6.355,0,0,0-.621-2.18,3.579,3.579,0,0,0-1.5-1.547.114.114,0,0,0-.082-.023h-.105a3.071,3.071,0,0,0-1.266,1.125,8.39,8.39,0,0,0-.926,1.875,13.613,13.613,0,0,0-.6,2.32,16.48,16.48,0,0,0-.234,2.438,15.051,15.051,0,0,0,.117,2.262A6.1,6.1,0,0,0,46.547-2.344ZM57.8-.187a.789.789,0,0,1-.117-.187l-.094-.187a12.149,12.149,0,0,0,.152-1.371Q57.82-3,57.926-4.406t.258-2.93q.152-1.523.34-2.719a8.909,8.909,0,0,1,.445-1.84q.258-.645.586-.316a6.657,6.657,0,0,1,1.313,1.3,19.067,19.067,0,0,1,1.172,1.7q.563.914,1.09,1.887t1.1,1.852a12.956,12.956,0,0,0,1.219,1.594,5.119,5.119,0,0,0,1.395,1.113h.164q.047-.562.105-1.395t.129-1.816q.07-.984.141-2.027t.176-2.039q.105-1,.223-1.84t.258-1.43q.023-.047.105-.2a3.208,3.208,0,0,1,.188-.3,1.15,1.15,0,0,1,.223-.246.17.17,0,0,1,.234,0l1.1,1.125q.07.07-.082.293t-.363.492q-.211.27-.422.516a1.015,1.015,0,0,0-.234.363,11.973,11.973,0,0,0-.281,1.465q-.117.855-.187,1.828t-.117,2q-.047,1.031-.082,2t-.047,1.84q-.012.867-.035,1.5a3.135,3.135,0,0,1-1.617-.516,7.08,7.08,0,0,1-1.488-1.3,15.963,15.963,0,0,1-1.383-1.828Q62.883-5.3,62.262-6.34T61.055-8.391Q60.469-9.4,59.93-10.172h-.211q-.094,0-.152.5t-.105,1.3q-.047.8-.094,1.816t-.129,2.039q-.082,1.02-.2,1.945a12.69,12.69,0,0,1-.281,1.559,2.162,2.162,0,0,1-.4.891Q58.125.141,57.8-.187Zm16.406,0q0-.445.035-1.2T74.3-3.023q.023-.891.023-1.828t-.047-1.758a12.768,12.768,0,0,0-.152-1.43,1.753,1.753,0,0,0-.293-.82,9.352,9.352,0,0,1-2.25-.023q-.773-.141-.785-.375t.785-.5a10.616,10.616,0,0,1,2.461-.387q0-.281.012-1t.012-1.512q0-.8-.012-1.5t-.012-.984q-.023-.164-.07-.445t-.094-.6q-.047-.316-.07-.633a1.852,1.852,0,0,1,.023-.527.5.5,0,0,1,.246-.387.772.772,0,0,1,.41-.094.708.708,0,0,1,.387.141.4.4,0,0,1,.176.34v7.008q0,.234.586.223t1.43-.105l1.77-.2a8.865,8.865,0,0,1,1.594-.059,1.3,1.3,0,0,1,.9.316q.234.27-.281.926a.789.789,0,0,1-.187.117.566.566,0,0,1-.187.07Q79.406-9.094,78-9.07a20.579,20.579,0,0,0-2.672.211q-.422.07-.457.785a9.171,9.171,0,0,0,.117,1.746q.152,1.031.352,2.191a17.731,17.731,0,0,1,.246,2.121,3.671,3.671,0,0,1-.2,1.559.789.789,0,0,1-1,.457.192.192,0,0,1-.117-.07A.192.192,0,0,1,74.2-.187ZM91.758-.914a33.392,33.392,0,0,0-.363-7.02,9.6,9.6,0,0,0-1.359-3.809,1.77,1.77,0,0,0-1.887-.891,3.55,3.55,0,0,0-1.957,1.7A14.135,14.135,0,0,0,84.6-6.984,25.814,25.814,0,0,0,83.836-1.1q-.094.281-.281.27a.635.635,0,0,1-.375-.176,1.58,1.58,0,0,1-.328-.41.9.9,0,0,1-.141-.434q0-.094.035-.445t.07-.75q.035-.4.059-.75t.023-.445q0-.211.012-.668t.012-1.043V-8.4q0-.574-.012-1.043t-.012-.7q0-.117-.023-.5t-.047-.82q-.023-.434-.059-.844t-.059-.6q0-.117-.059-.551t-.117-.937q-.059-.5-.105-.937t-.07-.551q-.07-.75.188-.879t.727.527q.188,1.922.258,3.785t.3,3.762q.211-.7.527-1.488a9.827,9.827,0,0,1,.75-1.488,5.67,5.67,0,0,1,1.031-1.242,3.327,3.327,0,0,1,1.371-.75,3.057,3.057,0,0,1,1.781-.07,2.781,2.781,0,0,1,1.277.832,4.654,4.654,0,0,1,.855,1.488,13.219,13.219,0,0,1,.539,1.922,18.481,18.481,0,0,1,.3,2.121q.094,1.09.164,2.074T92.555-3.5A10.479,10.479,0,0,0,92.7-2.2q.07.375.352.434t.516.117a.32.32,0,0,1,.27.258q.035.2-.387.832a.99.99,0,0,1-.457.352,1.412,1.412,0,0,1-.586.105.711.711,0,0,1-.492-.211A.69.69,0,0,1,91.758-.914Zm3.586.047a3.314,3.314,0,0,1-.75-1.43,11.233,11.233,0,0,1-.387-2.18,18.868,18.868,0,0,1-.035-2.59,19.818,19.818,0,0,1,.316-2.672,15.473,15.473,0,0,1,.656-2.426,6.452,6.452,0,0,1,1.008-1.863,2.745,2.745,0,0,1,1.359-.961,2.252,2.252,0,0,1,1.7.27,2.63,2.63,0,0,1,.691.633,8.263,8.263,0,0,1,.691,1,10.614,10.614,0,0,1,.574,1.1,8.772,8.772,0,0,1,.363.926,5.278,5.278,0,0,1,.012.715q-.012.6-.035,1.441t.012,1.863q.035,1.02.164,1.992a9.544,9.544,0,0,0,.41,1.8,3.414,3.414,0,0,0,.75,1.313,1.708,1.708,0,0,0,1.184.516,3.3,3.3,0,0,0,1.746-.574,1.272,1.272,0,0,0,.445-.645,2.55,2.55,0,0,0,.07-.539.6.6,0,0,1,.047-.293q.047-.07.422.117a1.516,1.516,0,0,1,.316,1.3,2.44,2.44,0,0,1-.68,1.219,2.958,2.958,0,0,1-1.324.75,2.5,2.5,0,0,1-1.629-.105,3.788,3.788,0,0,1-1.582-1.336,7.953,7.953,0,0,1-1.2-2.93,8.964,8.964,0,0,1-.434.984A10.2,10.2,0,0,1,99.539-2.3a8.053,8.053,0,0,1-.9,1.1,3.717,3.717,0,0,1-1.043.773,2.053,2.053,0,0,1-1.113.2A1.88,1.88,0,0,1,95.344-.867Zm.211-1.477q.4.844.938.914a1.4,1.4,0,0,0,1.1-.422,5.788,5.788,0,0,0,1.113-1.43A10.794,10.794,0,0,0,99.645-5.4a15.581,15.581,0,0,0,.586-2.484,9.628,9.628,0,0,0,.07-2.5,6.355,6.355,0,0,0-.621-2.18,3.579,3.579,0,0,0-1.5-1.547.114.114,0,0,0-.082-.023h-.105a3.071,3.071,0,0,0-1.266,1.125,8.39,8.39,0,0,0-.926,1.875,13.613,13.613,0,0,0-.6,2.32,16.48,16.48,0,0,0-.234,2.438,15.051,15.051,0,0,0,.117,2.262A6.1,6.1,0,0,0,95.555-2.344ZM123.4-.187A8.993,8.993,0,0,1,121.512-.7a3.1,3.1,0,0,1-1.09-.715,1.851,1.851,0,0,1-.469-.949,5.955,5.955,0,0,1-.07-1.219q.023-.68.105-1.512t.105-1.84V-8.414q0-.82-.023-1.652t-.047-1.629q-.023-.8-.035-1.406t-.035-.984q-.023-.375-.023-.4l-.187-.187a1.8,1.8,0,0,1-.223.281.293.293,0,0,1-.34.094q-.68-.258-.656-.738a1.687,1.687,0,0,1,.551-1.031,6.376,6.376,0,0,1,1.453-1.078,10.7,10.7,0,0,1,2.074-.891,11.5,11.5,0,0,1,2.414-.48,7.612,7.612,0,0,1,2.461.164,2.77,2.77,0,0,1,1.875.469,1.38,1.38,0,0,1,.434,1.172,4.2,4.2,0,0,1-.492,1.547,13.9,13.9,0,0,1-.937,1.57q-.5.727-.9,1.254t-.352.6a11.6,11.6,0,0,1,3.75,1,5.721,5.721,0,0,1,2.121,1.664,3.58,3.58,0,0,1,.715,2.074,4.905,4.905,0,0,1-.48,2.2,7.269,7.269,0,0,1-1.477,2.051,9,9,0,0,1-2.273,1.641,10.183,10.183,0,0,1-2.848.949A8.882,8.882,0,0,1,123.4-.187Zm-.914-1.289A9.311,9.311,0,0,0,126.41-.9a7.564,7.564,0,0,0,3.363-1.031,6.088,6.088,0,0,0,2.262-2.4,5.994,5.994,0,0,0,.6-3.516,2.538,2.538,0,0,0-.867-1.277,4.786,4.786,0,0,0-1.336-.762,8.141,8.141,0,0,0-2.613-.645,4.374,4.374,0,0,0-1.828.281,4.1,4.1,0,0,0-1.312.855L123.6-8.344a6.068,6.068,0,0,1-1.137.879,2.638,2.638,0,0,1-1.453.34v3.07q.047.047.223-.059t.4-.223a4.84,4.84,0,0,1,.457-.211.8.8,0,0,1,.4-.07v.188l-1.1,1.664a.308.308,0,0,0,.023.375,2.076,2.076,0,0,0,.352.4,4.352,4.352,0,0,0,.434.34A1.669,1.669,0,0,0,122.484-1.477ZM121.008-11.93q0,.188.023.633t.059.949q.035.5.059.949t.047.609a6.257,6.257,0,0,1,1.395-1.148q.832-.516,1.734-1.008t1.77-1.02a7.212,7.212,0,0,0,1.5-1.2,4.283,4.283,0,0,0,.938-1.523,3.714,3.714,0,0,0,.07-2,2.8,2.8,0,0,0-1.078-.551,6.624,6.624,0,0,0-1.477-.246,8.816,8.816,0,0,0-1.629.059,7.45,7.45,0,0,0-1.559.363,4.449,4.449,0,0,0-1.266.68,2.252,2.252,0,0,0-.75.984q0,.281.023.75t.059.973q.035.5.059.984T121.008-11.93ZM134.859-.562a5.482,5.482,0,0,1-.07-.949q-.023-.809-.035-1.957t.012-2.5q.023-1.348.059-2.531t.094-2.051a6.655,6.655,0,0,1,.129-1.1.347.347,0,0,1,.3,0,1.043,1.043,0,0,1,.293.188,1.142,1.142,0,0,1,.223.281.593.593,0,0,1,.094.281V-.562a.5.5,0,0,1-.141.387.485.485,0,0,1-.34.129.623.623,0,0,1-.375-.129A.682.682,0,0,1,134.859-.562Zm.188-14.742a.927.927,0,0,1-.035-.2q-.012-.129-.012-.281t.012-.281a.559.559,0,0,1,.035-.176,2.639,2.639,0,0,1,.422-.164,1.042,1.042,0,0,1,.492-.023,3.141,3.141,0,0,1,.5.832.631.631,0,0,1,.012.492.407.407,0,0,1-.316.211,1.289,1.289,0,0,1-.457-.012,1.586,1.586,0,0,1-.434-.152A.371.371,0,0,1,135.047-15.3ZM141.023.117q-.211-.117-.574-.293t-.762-.41a8.567,8.567,0,0,1-.762-.5,2.843,2.843,0,0,1-.6-.586,1.249,1.249,0,0,1-.258-.668,1.092,1.092,0,0,1,.258-.727q.047-.047.316.246t.691.7q.422.41.961.844a4.274,4.274,0,0,0,1.1.656,2.163,2.163,0,0,0,1.125.141,1.623,1.623,0,0,0,1.031-.691,1.67,1.67,0,0,0,.27-.6,2.283,2.283,0,0,0,.059-.691,4.1,4.1,0,0,0-.105-.691,2.912,2.912,0,0,0-.223-.621,5.108,5.108,0,0,0-.949-1.336q-.645-.68-1.383-1.383t-1.441-1.43a6.591,6.591,0,0,1-1.1-1.477,3.089,3.089,0,0,1-.387-1.512,2.494,2.494,0,0,1,.691-1.559,1.725,1.725,0,0,1,1.348-.609,3.866,3.866,0,0,1,1.594.352,5.1,5.1,0,0,1,1.383.9,2.381,2.381,0,0,1,.738,1.066,1.1,1.1,0,0,1,.047.457.827.827,0,0,1-.141.41.583.583,0,0,1-.34.223.946.946,0,0,1-.574-.082,1.1,1.1,0,0,1-.621-.609q-.223-.469-.469-.926a2.053,2.053,0,0,0-.633-.727,1.294,1.294,0,0,0-1.137-.035q-.844.281-.914.855a2.2,2.2,0,0,0,.34,1.313,8.912,8.912,0,0,0,1.125,1.547q.715.809,1.453,1.535l1.324,1.3a4.533,4.533,0,0,1,.727.832,6.907,6.907,0,0,1,.5,1.348,4.416,4.416,0,0,1,.152,1.582,2.522,2.522,0,0,1-.516,1.348,1.961,1.961,0,0,1-1.5.645,3.492,3.492,0,0,1-.387.035q-.246.012-.5.012a3.075,3.075,0,0,1-.527-.047A1.345,1.345,0,0,1,141.023.117ZM155.742-.914a33.392,33.392,0,0,0-.363-7.02,9.6,9.6,0,0,0-1.359-3.809,1.77,1.77,0,0,0-1.887-.891,3.55,3.55,0,0,0-1.957,1.7,14.135,14.135,0,0,0-1.594,3.949A25.814,25.814,0,0,0,147.82-1.1q-.094.281-.281.27a.635.635,0,0,1-.375-.176,1.58,1.58,0,0,1-.328-.41.9.9,0,0,1-.141-.434q0-.094.035-.445t.07-.75q.035-.4.059-.75t.023-.445q0-.211.012-.668t.012-1.043V-8.4q0-.574-.012-1.043t-.012-.7q0-.117-.023-.5t-.047-.82q-.023-.434-.059-.844t-.059-.6q0-.117-.059-.551t-.117-.937q-.059-.5-.105-.937t-.07-.551q-.07-.75.188-.879t.727.527q.188,1.922.258,3.785t.3,3.762q.211-.7.527-1.488a9.827,9.827,0,0,1,.75-1.488,5.67,5.67,0,0,1,1.031-1.242,3.327,3.327,0,0,1,1.371-.75,3.057,3.057,0,0,1,1.781-.07,2.781,2.781,0,0,1,1.277.832,4.654,4.654,0,0,1,.855,1.488,13.219,13.219,0,0,1,.539,1.922,18.481,18.481,0,0,1,.3,2.121q.094,1.09.164,2.074t.117,1.793a10.479,10.479,0,0,0,.141,1.3q.07.375.352.434t.516.117a.32.32,0,0,1,.27.258q.035.2-.387.832a.99.99,0,0,1-.457.352,1.412,1.412,0,0,1-.586.105.711.711,0,0,1-.492-.211A.69.69,0,0,1,155.742-.914Zm4.055.727a3.5,3.5,0,0,1-1.008-1.137,4.121,4.121,0,0,1-.434-1.312,4.87,4.87,0,0,1,0-1.43,11.5,11.5,0,0,1,.316-1.488q.141-.469.27-1.125T159.258-8a8.907,8.907,0,0,1,.445-1.242,2.58,2.58,0,0,1,.633-.9,1.5,1.5,0,0,1,.609-.316,3.192,3.192,0,0,1,.773-.117q.4-.012.773.012t.609.047a2.26,2.26,0,0,1,1.594.691,3.191,3.191,0,0,1,.75,1.535,6.479,6.479,0,0,1,.059,2.039,10.013,10.013,0,0,1-.516,2.215,10.979,10.979,0,0,1-.973,2.051,6.532,6.532,0,0,1-1.277,1.559,2.889,2.889,0,0,1-1.453.715A1.867,1.867,0,0,1,159.8-.187Zm.352-1.289a1.216,1.216,0,0,0,1.266.211,3.362,3.362,0,0,0,1.3-.961,7.708,7.708,0,0,0,1.113-1.7,8.443,8.443,0,0,0,.7-1.992,5,5,0,0,0,.07-1.852,1.833,1.833,0,0,0-.75-1.277,1.921,1.921,0,0,0-1.641-.363,2.777,2.777,0,0,0-1.359.914,5.774,5.774,0,0,0-.973,1.723,8.639,8.639,0,0,0-.5,2.063,6.251,6.251,0,0,0,.059,1.922A2.112,2.112,0,0,0,160.148-1.477Zm6.07,9.4a.748.748,0,0,1-.352-.727q.07-1.734.234-3.445t.375-3.4q.211-1.687.434-3.387t.434-3.434a1.653,1.653,0,0,0-.023-.457q-.047-.316-.094-.691t-.059-.762a1.933,1.933,0,0,1,.082-.668.652.652,0,0,1,.328-.4.932.932,0,0,1,.68.023.793.793,0,0,1,.223.164q.152.141.152.211a2.831,2.831,0,0,1,1.313-1.395,1.875,1.875,0,0,1,1.453,0,3.465,3.465,0,0,1,1.359,1.066,7.291,7.291,0,0,1,1.066,1.8,8.475,8.475,0,0,1,.586,2.2,6.322,6.322,0,0,1-.105,2.273,4.983,4.983,0,0,1-1,2.016,4.815,4.815,0,0,1-2.1,1.43,3.08,3.08,0,0,1-1.887.211,4.072,4.072,0,0,1-1.605-.937,31.491,31.491,0,0,0-.457,3.949q-.105,2-.293,4a1.152,1.152,0,0,1-.258.457Q166.57,8.156,166.219,7.922ZM169.008-.75q.023.023.082.094t.082.07a4.452,4.452,0,0,0,2.438-.293A3.11,3.11,0,0,0,173-2.145a4.166,4.166,0,0,0,.516-1.84A6.953,6.953,0,0,0,173.344-6a7.314,7.314,0,0,0-.68-1.8,3.505,3.505,0,0,0-1.008-1.219,1.343,1.343,0,0,0-1.172-.234,2.043,2.043,0,0,0-1.125,1.125,12.8,12.8,0,0,0-1.207,3.105,11.287,11.287,0,0,0-.246,3.34q.516-.586.738-.574t.293.293a2.282,2.282,0,0,1,.047.68A1.7,1.7,0,0,0,169.008-.75Z" transform="translate(526 452)"/>
    <path id="Path_1_-_Outline" data-name="Path 1 - Outline" d="M166.585,8.573a1.163,1.163,0,0,1-.643-.235l-.011-.008a1.251,1.251,0,0,1-.562-1.17c.047-1.155.126-2.318.236-3.458s.236-2.288.377-3.413.286-2.263.434-3.39.293-2.281.433-3.429l0-.022a1.378,1.378,0,0,0-.025-.3c-.032-.214-.064-.451-.1-.7s-.054-.536-.062-.809a2.435,2.435,0,0,1,.107-.841,1.152,1.152,0,0,1,.579-.688,1.064,1.064,0,0,1,.48-.106,1.906,1.906,0,0,1,.574.1l.008,0a.7.7,0,0,1,.116.051,2.793,2.793,0,0,1,1.226-1.06,2.385,2.385,0,0,1,1.827,0,3.97,3.97,0,0,1,1.559,1.214,7.823,7.823,0,0,1,1.14,1.927,9.015,9.015,0,0,1,.621,2.332,6.85,6.85,0,0,1-.114,2.452A5.5,5.5,0,0,1,173.7-.764,5.327,5.327,0,0,1,171.388.819a4.263,4.263,0,0,1-1.505.314,2.653,2.653,0,0,1-.688-.087,3.924,3.924,0,0,1-1.119-.517c-.154,1.012-.26,2.042-.314,3.072-.07,1.336-.169,2.688-.294,4.017l-.006.062-.021.059a1.6,1.6,0,0,1-.391.657A.675.675,0,0,1,166.585,8.573Zm.8-11.345c-.139,1.06-.275,2.131-.407,3.185-.139,1.115-.265,2.254-.373,3.384s-.186,2.276-.232,3.418l0,.032a.234.234,0,0,0,.1.235l.01-.025c.121-1.294.217-2.609.285-3.91a32.133,32.133,0,0,1,.464-4.012l.158-.875.046.04-.023-.357Q167.37-2.224,167.38-2.772Zm.5,1.871.171.151a3.606,3.606,0,0,0,1.4.829,2.628,2.628,0,0,0,1.578-.2q.143-.054.278-.113a4.824,4.824,0,0,1-1.385.186,7.464,7.464,0,0,1-.8-.045.621.621,0,0,1-.423-.248c-.039-.047-.053-.061-.054-.063l-.084-.084-.035-.109a1.989,1.989,0,0,1-.048-.726,2.533,2.533,0,0,0,0-.26c-.057.057-.125.129-.207.221Zm1.6-.16c.155.012.305.017.448.017h0a3.348,3.348,0,0,0,1.465-.286,2.6,2.6,0,0,0,1.178-1.062,3.691,3.691,0,0,0,.452-1.622,6.486,6.486,0,0,0-.163-1.871,6.849,6.849,0,0,0-.633-1.682,3.037,3.037,0,0,0-.857-1.049.845.845,0,0,0-.753-.16c-.262.071-.544.374-.814.879a12.361,12.361,0,0,0-1.161,2.984,10.174,10.174,0,0,0-.26,2.2.733.733,0,0,1,.292-.046.815.815,0,0,1,.752.671,2.746,2.746,0,0,1,.061.83C169.479-1.177,169.477-1.111,169.477-1.06ZM167.839-6.4q-.067.552-.136,1.1a13.473,13.473,0,0,1,1.216-3.074,2.473,2.473,0,0,1,1.435-1.371,1.854,1.854,0,0,1,.481-.065,1.9,1.9,0,0,1,1.109.374,3.056,3.056,0,0,1,.392.333,2.953,2.953,0,0,0-1.126-.879,1.364,1.364,0,0,0-1.079,0,2.388,2.388,0,0,0-1.058,1.166l-.935-.233-.006.018a.351.351,0,0,0,.057.187.5.5,0,0,0-.049-.05c-.038-.035-.063-.056-.079-.068A.643.643,0,0,0,167.8-9c-.018.009-.047.03-.073.107a1.453,1.453,0,0,0-.057.495c.007.241.026.482.055.715s.062.473.092.68A2.094,2.094,0,0,1,167.839-6.4ZM141.984.8a3.59,3.59,0,0,1-.613-.054,1.82,1.82,0,0,1-.592-.2c-.132-.073-.316-.167-.548-.279-.253-.122-.521-.267-.8-.429a9.11,9.11,0,0,1-.806-.533,3.354,3.354,0,0,1-.7-.69,1.746,1.746,0,0,1-.355-.932,1.579,1.579,0,0,1,.357-1.06l.021-.028.025-.025a.52.52,0,0,1,.371-.153.963.963,0,0,1,.667.414c.173.187.4.417.672.683s.58.535.926.813a3.8,3.8,0,0,0,.972.581,1.673,1.673,0,0,0,.869.111,1.155,1.155,0,0,0,.7-.5,1.168,1.168,0,0,0,.184-.416,1.793,1.793,0,0,0,.046-.541,3.622,3.622,0,0,0-.093-.607,2.427,2.427,0,0,0-.184-.515l-.006-.013a4.641,4.641,0,0,0-.859-1.2c-.422-.445-.881-.9-1.365-1.365s-.984-.957-1.456-1.444a7.119,7.119,0,0,1-1.184-1.59,3.6,3.6,0,0,1-.445-1.754,2.984,2.984,0,0,1,.811-1.875l.006-.007a2.213,2.213,0,0,1,1.722-.778,4.38,4.38,0,0,1,1.8.4,5.617,5.617,0,0,1,1.517.991,2.843,2.843,0,0,1,.878,1.29,1.606,1.606,0,0,1,.066.649,1.322,1.322,0,0,1-.231.653,1.087,1.087,0,0,1-.619.416,1.06,1.06,0,0,1-.269.034,1.653,1.653,0,0,1-.608-.131,1.588,1.588,0,0,1-.9-.863c-.144-.3-.3-.608-.457-.9a1.546,1.546,0,0,0-.478-.553.408.408,0,0,0-.232-.054,1.622,1.622,0,0,0-.465.085c-.358.12-.55.268-.571.44a1.739,1.739,0,0,0,.281,1.009,8.462,8.462,0,0,0,1.063,1.459c.467.528.947,1.036,1.429,1.51l1.323,1.3a4.39,4.39,0,0,1,.816.95l0,.008a7.431,7.431,0,0,1,.543,1.446,4.935,4.935,0,0,1,.168,1.76A3.026,3.026,0,0,1,144.77-.08a2.426,2.426,0,0,1-1.838.835,4.132,4.132,0,0,1-.42.037C142.341.8,142.164.8,141.984.8Zm2.386-3.438q.007.07.011.139a2.793,2.793,0,0,1-.071.842,2.175,2.175,0,0,1-.351.774l-.008.011a2.723,2.723,0,0,1-.52.524,1.083,1.083,0,0,0,.548-.35,2.015,2.015,0,0,0,.413-1.087A3.746,3.746,0,0,0,144.37-2.633Zm-5.717.541a.977.977,0,0,0,.076.119,2.359,2.359,0,0,0,.494.482q.126.094.258.184-.264-.231-.495-.455Q138.808-1.937,138.654-2.093Zm4.968-2.561a4.847,4.847,0,0,1,.3.489q-.061-.14-.125-.262A1.517,1.517,0,0,0,143.622-4.654Zm-4.8-5.831a2.761,2.761,0,0,0,.3.851,5.964,5.964,0,0,0,.9,1.237,8.712,8.712,0,0,1-.853-1.24A3.454,3.454,0,0,1,138.824-10.484Zm3.056-1.712a2.653,2.653,0,0,1,.51.674c.167.31.329.629.48.948.133.281.286.335.336.352l.019.007a.711.711,0,0,0,.246.064h.016a.11.11,0,0,0,.059-.03.366.366,0,0,0,.05-.167.6.6,0,0,0-.023-.252l-.008-.027a1.924,1.924,0,0,0-.595-.83A4.569,4.569,0,0,0,141.879-12.2Zm-1.679-.376a1.175,1.175,0,0,0-.664.264,2.718,2.718,0,0,1,.485-.212l.009,0Q140.117-12.551,140.2-12.573ZM161.032.8a2.447,2.447,0,0,1-1.543-.594,4,4,0,0,1-1.142-1.3l-.048-.093a2.862,2.862,0,0,1-.453.9l-.006.009a1.486,1.486,0,0,1-.681.529,1.917,1.917,0,0,1-.792.141,1.216,1.216,0,0,1-.826-.357,1.155,1.155,0,0,1-.3-.987,33.025,33.025,0,0,0-.355-6.891,9.2,9.2,0,0,0-1.269-3.6,1.467,1.467,0,0,0-1.114-.737,1.038,1.038,0,0,0-.251.032,3.113,3.113,0,0,0-1.658,1.484,13.723,13.723,0,0,0-1.531,3.808,25.442,25.442,0,0,0-.745,5.768l0,.074-.023.07a.776.776,0,0,1-.741.612h-.046a1.123,1.123,0,0,1-.673-.3,2.085,2.085,0,0,1-.433-.538,1.37,1.37,0,0,1-.207-.682c0-.055,0-.161.038-.5.023-.231.047-.481.07-.744s.042-.509.058-.739c.02-.3.022-.389.022-.412,0-.146,0-.369.012-.681s.012-.645.012-1.03V-8.4c0-.377,0-.724-.012-1.03s-.012-.554-.012-.716c0-.038,0-.151-.023-.474q-.024-.388-.047-.824c-.015-.283-.035-.561-.058-.828s-.042-.461-.057-.578l0-.031v-.031c0-.014,0-.105-.054-.484-.039-.291-.079-.609-.118-.947s-.075-.652-.106-.942c-.04-.371-.058-.478-.064-.506l-.005-.026,0-.026a2.507,2.507,0,0,1,.021-.746.853.853,0,0,1,.441-.627.7.7,0,0,1,.314-.074c.445,0,.791.405,1.043.758l.078.109.013.133c.125,1.285.213,2.568.26,3.815.02.527.05,1.06.09,1.595a10.26,10.26,0,0,1,.567-1.053,6.2,6.2,0,0,1,1.122-1.351,3.838,3.838,0,0,1,1.57-.86,4.326,4.326,0,0,1,1.212-.191,2.863,2.863,0,0,1,.854.125,3.287,3.287,0,0,1,1.5.978,5.17,5.17,0,0,1,.95,1.646,13.78,13.78,0,0,1,.56,1.995,19.072,19.072,0,0,1,.313,2.178c.062.726.118,1.426.165,2.081s.086,1.261.118,1.8a10.056,10.056,0,0,0,.133,1.236.458.458,0,0,0,.011.048c.175.037.338.074.486.111a.947.947,0,0,1,.315.141,4.639,4.639,0,0,1-.122-.564,5.393,5.393,0,0,1,0-1.576,12.061,12.061,0,0,1,.33-1.553l0-.008c.089-.3.175-.658.258-1.078.088-.449.2-.907.326-1.363a9.446,9.446,0,0,1,.471-1.312A3.086,3.086,0,0,1,160-10.523a2,2,0,0,1,.806-.423,3.709,3.709,0,0,1,.894-.136c.28-.008.555,0,.819.012s.46.032.62.048a2.748,2.748,0,0,1,1.922.854,3.7,3.7,0,0,1,.869,1.77A7.006,7.006,0,0,1,166-6.2a10.561,10.561,0,0,1-.541,2.325,11.535,11.535,0,0,1-1.017,2.144,7.058,7.058,0,0,1-1.377,1.677,3.393,3.393,0,0,1-1.7.831A2.173,2.173,0,0,1,161.032.8Zm-2.2-4.624a4.333,4.333,0,0,0,.021,1.112,3.641,3.641,0,0,0,.381,1.154,3.022,3.022,0,0,0,.868.972l.012.009a1.372,1.372,0,0,0,1.1.364,2.413,2.413,0,0,0,1.2-.6,6.068,6.068,0,0,0,1.177-1.441,10.532,10.532,0,0,0,.928-1.958l.04-.116q-.128.312-.281.622A8.242,8.242,0,0,1,163.09-1.9a3.867,3.867,0,0,1-1.5,1.1,1.826,1.826,0,0,1-.648.124,1.747,1.747,0,0,1-1.105-.41,2.6,2.6,0,0,1-.9-1.608A6.244,6.244,0,0,1,158.829-3.824Zm-2.564,1.977q-.008.465-.023.949l0,.042a.338.338,0,0,0,.01.186.211.211,0,0,0,.158.065.906.906,0,0,0,.38-.07.5.5,0,0,0,.23-.17c.108-.163.178-.282.224-.366-.1-.023-.2-.046-.312-.068A.915.915,0,0,1,156.265-1.847Zm-8.859-6.78q0,.111,0,.225v2.449c0,.394,0,.749-.012,1.056s-.012.52-.012.655c0,.051,0,.152-.025.479-.016.237-.036.493-.059.761s-.047.521-.071.756c-.031.311-.033.384-.033.4a.462.462,0,0,0,.075.186q.031.055.066.1a25.779,25.779,0,0,1,.763-5.551,14.684,14.684,0,0,1,1.656-4.091,4.028,4.028,0,0,1,2.256-1.914,2.038,2.038,0,0,1,.493-.062,2.407,2.407,0,0,1,1.915,1.139,5.687,5.687,0,0,1,.667,1.212q-.068-.21-.143-.412a4.181,4.181,0,0,0-.761-1.33,2.27,2.27,0,0,0-1.052-.686,2.6,2.6,0,0,0-1.49.073l-.01,0a2.808,2.808,0,0,0-1.168.639,5.2,5.2,0,0,0-.941,1.133A9.373,9.373,0,0,0,148.811-10c-.2.507-.377.993-.512,1.445Zm15.238-.344a1.051,1.051,0,0,0-.295.042,2.269,2.269,0,0,0-1.116.757,5.306,5.306,0,0,0-.886,1.575,8.179,8.179,0,0,0-.475,1.943,5.782,5.782,0,0,0,.052,1.769,1.646,1.646,0,0,0,.532,1.016l0,0a.766.766,0,0,0,.483.193.832.832,0,0,0,.293-.059,2.89,2.89,0,0,0,1.1-.824,7.247,7.247,0,0,0,1.04-1.59,7.984,7.984,0,0,0,.662-1.874,4.526,4.526,0,0,0,.066-1.667,1.345,1.345,0,0,0-.539-.946A1.7,1.7,0,0,0,162.644-8.971Zm-.662-1.114c-.081,0-.165,0-.248,0a2.708,2.708,0,0,0-.653.1,1.021,1.021,0,0,0-.41.207l-.005,0a2.1,2.1,0,0,0-.506.731,8.448,8.448,0,0,0-.42,1.173q-.053.188-.1.376a5.873,5.873,0,0,1,.832-1.326,3.28,3.28,0,0,1,1.6-1.071,2.064,2.064,0,0,1,.571-.081,2.665,2.665,0,0,1,1.487.51l0,0a2.156,2.156,0,0,1,.663.73,2.5,2.5,0,0,0-.475-.768,1.768,1.768,0,0,0-1.257-.528h-.016c-.149-.015-.348-.03-.591-.045C162.305-10.081,162.144-10.086,161.982-10.086ZM8.375.557A6.342,6.342,0,0,1,6.692.3,4.424,4.424,0,0,1,5.452-.28,9.639,9.639,0,0,1,4.129-1.293,10.647,10.647,0,0,1,2.924-2.585,5.707,5.707,0,0,1,2.065-4.05a2.95,2.95,0,0,1-.179-1.563A2.3,2.3,0,0,1,2.81-7.051l.007-.005a2.265,2.265,0,0,1,.5-.252A3.257,3.257,0,0,1,4.011-7.5a1.127,1.127,0,0,1,.825.148A.844.844,0,0,1,5.094-6.3l-.069.22-.212.091a1.291,1.291,0,0,0-.76.63,1.209,1.209,0,0,0,.015.854,3.478,3.478,0,0,0,.679,1.1A6.8,6.8,0,0,0,5.916-2.34a7.363,7.363,0,0,0,1.371.779,3.13,3.13,0,0,0,1.22.287,1.238,1.238,0,0,0,.8-.255,1.25,1.25,0,0,0,.34-.9,7.957,7.957,0,0,0-.143-2.09A4.582,4.582,0,0,0,8.652-6.35,6.662,6.662,0,0,0,7.49-7.524a11.977,11.977,0,0,0-1.237-.832c-.419-.244-.845-.476-1.264-.69a9.833,9.833,0,0,1-1.309-.8,7.09,7.09,0,0,1-1.2-1.109,6.952,6.952,0,0,1-1.013-1.629,4.074,4.074,0,0,1-.351-2.552,4.089,4.089,0,0,1,1.067-2.025,4.928,4.928,0,0,1,1.979-1.227A5.45,5.45,0,0,1,6.6-18.637h.005A3.194,3.194,0,0,1,8.131-18a4.623,4.623,0,0,1,1.09,1.169,4.253,4.253,0,0,1,.6,1.421A2.551,2.551,0,0,1,9.75-13.97a1.8,1.8,0,0,1-1.033,1.035,2.528,2.528,0,0,1-1,.18,5.064,5.064,0,0,1-.9-.089l-.3-.055-.087-.3a1.053,1.053,0,0,1,.22-1.1,3.277,3.277,0,0,1,.581-.457c.173-.108.333-.217.476-.324a.227.227,0,0,0,0-.033,1.978,1.978,0,0,0-.671-1.325,1.913,1.913,0,0,0-1.176-.394H5.831a2.857,2.857,0,0,0-1.387.4A2.7,2.7,0,0,0,3.4-15.388,2.394,2.394,0,0,0,3.145-13.9a3.674,3.674,0,0,0,1,1.9,6.369,6.369,0,0,0,1.323,1.209c.437.279.877.531,1.305.749.454.231.925.493,1.4.779A7.394,7.394,0,0,1,9.767-7.908a7.466,7.466,0,0,1,1.184,1.773,7.334,7.334,0,0,1,.639,2q-.016-.148-.029-.3a19.457,19.457,0,0,1-.036-2.659,20.411,20.411,0,0,1,.324-2.739,16.048,16.048,0,0,1,.678-2.5,6.976,6.976,0,0,1,1.089-2.007,3.245,3.245,0,0,1,1.608-1.126,2.751,2.751,0,0,1,2.072.307l.016.009a3.082,3.082,0,0,1,.831.751,8.8,8.8,0,0,1,.734,1.056,11.161,11.161,0,0,1,.6,1.153,9.157,9.157,0,0,1,.384.981l.008.025.005.026a4.212,4.212,0,0,1,.021.823c-.008.4-.02.884-.035,1.445s-.011,1.166.012,1.832.077,1.314.16,1.944a9.087,9.087,0,0,0,.388,1.71,2.942,2.942,0,0,0,.634,1.123,1.215,1.215,0,0,0,.85.365A2.793,2.793,0,0,0,23.329-2.4a.744.744,0,0,0,.253-.347,2.08,2.08,0,0,0,.058-.431.98.98,0,0,1,.131-.57.548.548,0,0,1,.466-.242,1.159,1.159,0,0,1,.481.134q0-.064,0-.131c0-.541-.008-1.16-.023-1.84s-.027-1.424-.035-2.186-.012-1.507-.012-2.208.012-1.356.036-1.931a13.485,13.485,0,0,1,.111-1.378v-.008a.785.785,0,0,1,.6-.723,1.027,1.027,0,0,1,.68.1,1.539,1.539,0,0,1,.5.413,1.493,1.493,0,0,1,.292.529l0,.016a6.107,6.107,0,0,1,.166,1.009c.024.307.044.619.059.927l.011.205A10.815,10.815,0,0,1,27.75-12a7.648,7.648,0,0,1,1.016-1.1,2.632,2.632,0,0,1,1.247-.656,1.628,1.628,0,0,1,.3-.028,1.733,1.733,0,0,1,1.074.394,3.652,3.652,0,0,1,1.026,1.582l.006.016a6.9,6.9,0,0,1,.241.9c.07.334.145.683.222,1.039a10.278,10.278,0,0,0,.268.994q.029.089.059.17.067-.074.129-.159c.191-.259.384-.534.574-.816a9.874,9.874,0,0,1,.667-.877,3.194,3.194,0,0,1,1.012-.779l.031-.015.033-.011a7.444,7.444,0,0,1,2.333-.445,3.971,3.971,0,0,1,.8.077,3.73,3.73,0,0,1,2.089,1.153,4.988,4.988,0,0,1,1.084,2.107A11.188,11.188,0,0,1,42.3-5.991a14.631,14.631,0,0,1-.134,2.463c-.069.489-.149.934-.238,1.328.226-.149.47-.312.727-.487.347-.237.684-.457,1-.655a1.626,1.626,0,0,1,.838-.312.734.734,0,0,1,.259.045l.045.017q-.06-.406-.1-.842a19.454,19.454,0,0,1-.036-2.659,20.413,20.413,0,0,1,.324-2.739,16.045,16.045,0,0,1,.678-2.5,6.976,6.976,0,0,1,1.089-2.007,3.245,3.245,0,0,1,1.608-1.126,2.751,2.751,0,0,1,2.072.307l.016.009a3.082,3.082,0,0,1,.831.751,8.8,8.8,0,0,1,.734,1.056,11.168,11.168,0,0,1,.6,1.154,9.294,9.294,0,0,1,.384.981l.008.025.005.026a4.214,4.214,0,0,1,.021.823c-.008.4-.02.884-.035,1.446s-.011,1.166.012,1.832.077,1.314.16,1.944a9.087,9.087,0,0,0,.388,1.71,2.942,2.942,0,0,0,.634,1.123,1.215,1.215,0,0,0,.85.365A2.793,2.793,0,0,0,56.47-2.4a.744.744,0,0,0,.253-.347,2.081,2.081,0,0,0,.058-.431.979.979,0,0,1,.131-.57.55.55,0,0,1,.481-.242l.034-.456c.07-.937.157-1.927.259-2.942s.218-1.944.343-2.746A9.286,9.286,0,0,1,58.5-12.08c.2-.492.478-.741.837-.741a.781.781,0,0,1,.536.227,7.209,7.209,0,0,1,1.385,1.378,19.648,19.648,0,0,1,1.2,1.744c.378.614.749,1.257,1.1,1.91.343.633.707,1.244,1.081,1.816a12.515,12.515,0,0,0,1.172,1.532,5.048,5.048,0,0,0,.746.683q.023-.308.048-.664.059-.832.129-1.817c.047-.651.094-1.332.141-2.025s.107-1.39.177-2.058.146-1.29.225-1.856.17-1.073.267-1.478l.013-.056.025-.051c.012-.025.036-.071.113-.213a3.727,3.727,0,0,1,.217-.352,1.653,1.653,0,0,1,.321-.352.684.684,0,0,1,.43-.156.684.684,0,0,1,.43.156l.024.019,1.123,1.147c.135.138.307.438-.027.925-.107.157-.236.331-.382.518s-.291.364-.436.533a1.316,1.316,0,0,0-.133.175A11.571,11.571,0,0,0,69-9.741c-.076.557-.138,1.161-.184,1.8s-.086,1.311-.116,1.991-.059,1.355-.082,2-.039,1.257-.047,1.829-.02,1.088-.035,1.512l-.018.5-.5-.014a3.642,3.642,0,0,1-1.872-.594,7.611,7.611,0,0,1-1.594-1.391A16.539,16.539,0,0,1,63.133-4c-.447-.682-.884-1.382-1.3-2.081s-.82-1.384-1.21-2.055q-.309-.531-.606-1c-.02.235-.039.5-.056.8-.031.526-.062,1.135-.093,1.81s-.075,1.374-.13,2.056-.123,1.346-.2,1.968a13.24,13.24,0,0,1-.293,1.621,2.594,2.594,0,0,1-.512,1.1A.788.788,0,0,1,58.135.5a.981.981,0,0,1-.692-.33,1.059,1.059,0,0,1-.178-.253A3.645,3.645,0,0,1,56.2.4,3.013,3.013,0,0,1,54.25.278a4.288,4.288,0,0,1-1.8-1.5,6.718,6.718,0,0,1-.9-1.787,10.978,10.978,0,0,1-.6,1,8.59,8.59,0,0,1-.958,1.17A4.23,4.23,0,0,1,48.8.029a2.56,2.56,0,0,1-1.38.246,2.364,2.364,0,0,1-1.444-.793,3.763,3.763,0,0,1-.872-1.639q-.047-.161-.089-.329l-.109.1a3.426,3.426,0,0,0-.395.438c-.186.234-.4.483-.631.74s-.488.517-.755.767A4.314,4.314,0,0,1,42.251.2a2.1,2.1,0,0,1-1.013.272A1.482,1.482,0,0,1,40.17,0l-.035-.035-.028-.041a2.536,2.536,0,0,1-.148-.265,2.42,2.42,0,0,1-.148-.37c-.027-.088-.054-.166-.08-.231a.929.929,0,0,1-.083-.35l0-.042c.016-.189.044-.483.083-.875s.078-.824.116-1.3.078-1,.117-1.542.057-1.045.057-1.523-.019-.911-.056-1.3a2.234,2.234,0,0,0-.172-.762l0-.008a1.181,1.181,0,0,0-.538-.567,2.386,2.386,0,0,0-.9-.251q-.206-.018-.393-.018a2.631,2.631,0,0,0-1.5.4,4.14,4.14,0,0,0-1.286,1.393,8.356,8.356,0,0,0-.828,2.046c-.207.784-.387,1.543-.533,2.257-.149.73-.293,1.375-.426,1.918a2.135,2.135,0,0,1-.7,1.311,1.043,1.043,0,0,1-.6.216.742.742,0,0,1-.219-.033.957.957,0,0,1-.539-.443,2.369,2.369,0,0,1-.224-.505,2.846,2.846,0,0,1-.113-.5l0-.038V-1.49c.016-.585.06-1.3.131-2.138.069-.816.12-1.667.151-2.53s.027-1.69-.011-2.477a6.369,6.369,0,0,0-.333-1.877l0-.006c-.278-.78-.483-.884-.492-.888a.124.124,0,0,0-.055-.015.42.42,0,0,0-.22.124,3.542,3.542,0,0,0-.717,1.045,17.2,17.2,0,0,0-.762,1.8c-.245.674-.478,1.389-.693,2.125s-.407,1.447-.569,2.1S27.1-2.994,27-2.515c-.137.606-.17.824-.178.9l0,.024c-.117.779-.62.9-.831.917-.031,0-.063,0-.094,0A1.31,1.31,0,0,1,25.039-1l-.012-.01a3.133,3.133,0,0,1-.428.53A3.464,3.464,0,0,1,23.056.4,3.013,3.013,0,0,1,21.11.278a4.288,4.288,0,0,1-1.8-1.5,6.717,6.717,0,0,1-.9-1.787,10.982,10.982,0,0,1-.6,1,8.593,8.593,0,0,1-.958,1.17,4.229,4.229,0,0,1-1.185.875,2.56,2.56,0,0,1-1.38.246,2.364,2.364,0,0,1-1.444-.793,3.763,3.763,0,0,1-.872-1.639,10.737,10.737,0,0,1-.315-1.488,5.709,5.709,0,0,1-.061,1.494,3.463,3.463,0,0,1-.769,1.68A2.991,2.991,0,0,1,9.156.476,3.589,3.589,0,0,1,8.375.557Zm43.381-6.8.387,1.672a7.517,7.517,0,0,0,1.109,2.744A3.327,3.327,0,0,0,54.617-.653a2.17,2.17,0,0,0,.8.161,1.916,1.916,0,0,0,.516-.072,2.445,2.445,0,0,0,1.105-.622,2.273,2.273,0,0,0,.154-.17c.011-.114.022-.24.033-.377q-.059.059-.126.117l-.035.031-.04.024A3.874,3.874,0,0,1,55.1-.916l-.1,0a2.2,2.2,0,0,1-1.517-.666,3.919,3.919,0,0,1-.866-1.5,10.088,10.088,0,0,1-.432-1.9c-.088-.661-.144-1.348-.168-2.041S51.984-8.35,52-8.92s.027-1.042.035-1.437,0-.546,0-.6a8.676,8.676,0,0,0-.33-.83,10.165,10.165,0,0,0-.547-1.05,7.8,7.8,0,0,0-.649-.936,2.194,2.194,0,0,0-.545-.511,2.923,2.923,0,0,0-.376-.165,4.058,4.058,0,0,1,1.533,1.66,6.882,6.882,0,0,1,.671,2.35,10.172,10.172,0,0,1-.073,2.625,16.156,16.156,0,0,1-.6,2.564,11.344,11.344,0,0,1-.982,2.219,6.3,6.3,0,0,1-1.215,1.553,1.972,1.972,0,0,1-1.3.554h0a1.551,1.551,0,0,1-.2-.013,1.494,1.494,0,0,1-1-.652,1.8,1.8,0,0,0,.275.366l.007.007a1.42,1.42,0,0,0,.827.493,1.547,1.547,0,0,0,.847-.153,3.239,3.239,0,0,0,.9-.672,7.586,7.586,0,0,0,.846-1.033,9.738,9.738,0,0,0,.658-1.114,8.525,8.525,0,0,0,.409-.927Zm-33.141,0L19-4.566a7.517,7.517,0,0,0,1.109,2.744A3.327,3.327,0,0,0,21.476-.653a2.17,2.17,0,0,0,.8.161,1.916,1.916,0,0,0,.515-.072,2.445,2.445,0,0,0,1.105-.622,1.933,1.933,0,0,0,.545-.973c0-.016.007-.032.01-.048s0-.01,0-.015a2.058,2.058,0,0,1-.493.606l-.035.031-.04.024a3.874,3.874,0,0,1-1.922.646l-.1,0a2.2,2.2,0,0,1-1.517-.666,3.919,3.919,0,0,1-.866-1.5,10.088,10.088,0,0,1-.432-1.9c-.088-.661-.144-1.348-.168-2.041S18.844-8.35,18.86-8.92s.027-1.042.035-1.437,0-.546,0-.6a8.679,8.679,0,0,0-.33-.83,10.163,10.163,0,0,0-.547-1.05,7.8,7.8,0,0,0-.649-.936,2.194,2.194,0,0,0-.545-.511,2.923,2.923,0,0,0-.376-.165,4.057,4.057,0,0,1,1.533,1.66,6.882,6.882,0,0,1,.671,2.35,10.173,10.173,0,0,1-.073,2.625,16.155,16.155,0,0,1-.6,2.564,11.344,11.344,0,0,1-.982,2.219,6.3,6.3,0,0,1-1.215,1.553,1.972,1.972,0,0,1-1.3.554,1.551,1.551,0,0,1-.2-.013,1.494,1.494,0,0,1-1-.652,1.8,1.8,0,0,0,.275.366l.007.007a1.42,1.42,0,0,0,.827.493,1.547,1.547,0,0,0,.847-.153,3.239,3.239,0,0,0,.9-.672,7.589,7.589,0,0,0,.846-1.033,9.747,9.747,0,0,0,.658-1.114,8.523,8.523,0,0,0,.409-.927Zm22.3,5.569a.463.463,0,0,0,.323.145,1.1,1.1,0,0,0,.534-.15,3.32,3.32,0,0,0,.671-.5c.177-.166.348-.336.51-.507-.246.166-.478.319-.693.459a1.372,1.372,0,0,1-.727.279.63.63,0,0,1-.45-.181l-.023-.024-.347-.4.08-.265a12.749,12.749,0,0,0,.382-1.859A13.635,13.635,0,0,0,41.3-5.962a10.188,10.188,0,0,0-.313-2.245,4.885,4.885,0,0,0-.153-.488,4.182,4.182,0,0,1,.127.726c.04.42.061.89.061,1.4S41-5.536,40.964-4.98s-.079,1.068-.118,1.551-.079.93-.118,1.322c-.033.335-.059.6-.075.78l.006.016c.036.09.072.194.107.308a1.418,1.418,0,0,0,.087.217C40.881-.731,40.9-.694,40.916-.669ZM58.154-.98c-.014.127-.028.235-.042.326a2.862,2.862,0,0,0,.163-.479q.013-.051.026-.1-.066.128-.145.249ZM31.978-1.5a1.945,1.945,0,0,0,.07.287A1.483,1.483,0,0,0,32.133-1a1.837,1.837,0,0,0,.276-.7c.131-.53.271-1.162.417-1.879.15-.733.333-1.511.546-2.313a9.354,9.354,0,0,1,.929-2.29,5.131,5.131,0,0,1,1.6-1.724,3.858,3.858,0,0,1,2.536-.551,3.376,3.376,0,0,1,1.274.358,2.132,2.132,0,0,1,.714.587,3.418,3.418,0,0,0-.3-.383,2.717,2.717,0,0,0-1.544-.839,5.189,5.189,0,0,0-2.576.324,2.187,2.187,0,0,0-.669.518,8.872,8.872,0,0,0-.6.787c-.2.293-.4.578-.6.848a2.815,2.815,0,0,1-.841.768l-.385.227-.268-.358a2.92,2.92,0,0,1-.388-.75c.027.722.026,1.477,0,2.249-.031.879-.083,1.747-.154,2.579C32.036-2.749,31.994-2.063,31.978-1.5Zm27.741-9.168h.472l.149.214c.365.524.751,1.135,1.147,1.816s.794,1.356,1.2,2.046.839,1.374,1.278,2.044A15.535,15.535,0,0,0,65.308-2.78,6.616,6.616,0,0,0,66.69-1.57a2.784,2.784,0,0,0,.866.374c.007-.287.013-.6.018-.943.008-.579.024-1.2.047-1.851q.01-.282.021-.571l-.031.437c-.039.555-.075,1.026-.106,1.4l-.038.458h-.749l-.11-.058a5.64,5.64,0,0,1-1.531-1.22A13.517,13.517,0,0,1,63.812-5.2c-.389-.595-.766-1.23-1.123-1.887-.346-.637-.708-1.264-1.076-1.863A18.651,18.651,0,0,0,60.472-10.6a6.361,6.361,0,0,0-1.05-1.079,8.663,8.663,0,0,0-.405,1.705c-.123.784-.236,1.689-.336,2.691s-.187,1.988-.257,2.917q-.04.527-.076,1.007h0v.011a2.036,2.036,0,0,1,.215.565c.069-.561.128-1.154.177-1.766.054-.671.1-1.352.128-2.022s.063-1.293.094-1.823.068-.985.108-1.329a2.769,2.769,0,0,1,.085-.465A.585.585,0,0,1,59.719-10.672ZM25.451-2.166q0,.011.005.022a.7.7,0,0,0,.223.377.465.465,0,0,0,.136.084c0-.013.006-.028.008-.045a9.77,9.77,0,0,1,.2-1.007c.11-.486.248-1.068.412-1.732s.36-1.388.58-2.141.461-1.493.713-2.187a18.19,18.19,0,0,1,.808-1.9,4.422,4.422,0,0,1,.947-1.345,1.326,1.326,0,0,1,.884-.376,1.123,1.123,0,0,1,.481.11,1.2,1.2,0,0,1,.348.253,1.76,1.76,0,0,0-.422-.543.753.753,0,0,0-.461-.184.623.623,0,0,0-.114.011,1.662,1.662,0,0,0-.768.422,6.646,6.646,0,0,0-.882.959,9.739,9.739,0,0,0-.758,1.159c-.228.411-.412.764-.548,1.049l-.6,1.263L26.3-9.277a5.356,5.356,0,0,1-.155-1.021l-.047-.914c-.015-.3-.035-.6-.058-.9a5.1,5.1,0,0,0-.136-.832.575.575,0,0,0-.1-.168q-.023-.029-.047-.053c-.031.275-.055.63-.073,1.059-.023.561-.035,1.2-.035,1.89s0,1.437.012,2.2.02,1.49.035,2.173.024,1.314.024,1.863-.008.97-.024,1.248l-.011.18-.123.132a.493.493,0,0,0-.1.149Q25.457-2.221,25.451-2.166ZM49.045-13.6a2.707,2.707,0,0,0-.913.877,7.934,7.934,0,0,0-.869,1.764,13.179,13.179,0,0,0-.575,2.235,16.056,16.056,0,0,0-.227,2.364,14.617,14.617,0,0,0,.113,2.187A5.643,5.643,0,0,0,47-2.555c.178.377.379.607.549.63a.547.547,0,0,0,.07,0h0a1.024,1.024,0,0,0,.637-.307,5.332,5.332,0,0,0,1.011-1.307,10.344,10.344,0,0,0,.893-2.023,15.152,15.152,0,0,0,.567-2.4,9.173,9.173,0,0,0,.067-2.367,5.887,5.887,0,0,0-.571-2.01A3.035,3.035,0,0,0,49.045-13.6ZM15.9-13.6a2.706,2.706,0,0,0-.913.877,7.932,7.932,0,0,0-.869,1.764,13.176,13.176,0,0,0-.575,2.235,16.056,16.056,0,0,0-.227,2.364,14.618,14.618,0,0,0,.113,2.187,5.643,5.643,0,0,0,.426,1.623c.178.377.379.607.549.63a.592.592,0,0,0,.071,0,1.024,1.024,0,0,0,.637-.307,5.332,5.332,0,0,0,1.011-1.307,10.345,10.345,0,0,0,.893-2.023,15.15,15.15,0,0,0,.567-2.4,9.173,9.173,0,0,0,.067-2.367,5.887,5.887,0,0,0-.571-2.01A3.035,3.035,0,0,0,15.9-13.6ZM10.613-3.9a9.053,9.053,0,0,1,.051,1.08A5.146,5.146,0,0,0,10.613-3.9Zm-7.2-2.351a1.311,1.311,0,0,0-.544.806A1.939,1.939,0,0,0,3-4.411a3.939,3.939,0,0,0,.215.461q-.047-.11-.086-.221a2.2,2.2,0,0,1-.008-1.537A1.721,1.721,0,0,1,3.493-6.3.828.828,0,0,0,3.416-6.255Zm65.1-6.883c-.084.363-.163.808-.235,1.323-.055.4-.109.828-.161,1.281.057-.316.119-.6.188-.859a1.4,1.4,0,0,1,.341-.57c.135-.158.272-.325.408-.5.1-.125.186-.242.263-.35l-.626-.639c-.038.059-.073.118-.1.176ZM15.432-14.486a2.279,2.279,0,0,0-1.04.773,5.861,5.861,0,0,0-.883,1.6,8.129,8.129,0,0,1,.654-1.177A3.681,3.681,0,0,1,15.432-14.486Zm33.141,0a2.279,2.279,0,0,0-1.04.773,5.862,5.862,0,0,0-.883,1.6,8.132,8.132,0,0,1,.654-1.177A3.681,3.681,0,0,1,48.573-14.486ZM3.2-16.743a3.566,3.566,0,0,0-.3.274,3.063,3.063,0,0,0-.808,1.538,2.877,2.877,0,0,0,.129,1.54,3.037,3.037,0,0,1-.072-.392,3.4,3.4,0,0,1,.377-2.095A3.664,3.664,0,0,1,3.2-16.743ZM7.552-13.76a1.757,1.757,0,0,0,.77-.094.816.816,0,0,0,.49-.465,1.577,1.577,0,0,0,.027-.881,3.232,3.232,0,0,0-.411-1.012,3.949,3.949,0,0,1,.268.944l0,.01a.99.99,0,0,1-.382.975c-.167.125-.352.252-.551.376A2.51,2.51,0,0,0,7.552-13.76ZM74.658.527A1.938,1.938,0,0,1,74.325.5.683.683,0,0,1,73.92.283.66.66,0,0,1,73.7-.187c0-.3.012-.713.036-1.219s.043-1.042.058-1.63.023-1.2.023-1.815-.016-1.194-.046-1.729a12.336,12.336,0,0,0-.146-1.373,2.876,2.876,0,0,0-.089-.384c-.33.021-.634.031-.908.031a6.456,6.456,0,0,1-1.142-.085,2.869,2.869,0,0,1-.709-.2.747.747,0,0,1-.486-.637c-.031-.612.749-.876,1.124-1a9.606,9.606,0,0,1,2.125-.375q0-.231.008-.542c.008-.472.012-.978.012-1.5s0-1.027-.012-1.492c-.007-.44-.011-.761-.012-.956-.015-.1-.036-.236-.064-.4-.032-.19-.064-.395-.1-.607s-.058-.447-.074-.669a2.339,2.339,0,0,1,.031-.66.976.976,0,0,1,.5-.733,1.269,1.269,0,0,1,.672-.151,1.2,1.2,0,0,1,.655.237.9.9,0,0,1,.38.743v6.731h.076c.374-.008.84-.042,1.384-.1l1.768-.2a9.391,9.391,0,0,1,1.685-.061,1.732,1.732,0,0,1,1.245.487c.336.386.246.912-.265,1.563l-.018.023-.021.021a1.189,1.189,0,0,1-.318.211.917.917,0,0,1-.411.123h-.019c-.554-.021-1.136-.031-1.732-.031-.3,0-.605,0-.913.008a20.216,20.216,0,0,0-2.577.2.813.813,0,0,0-.061.319A8.729,8.729,0,0,0,75.483-6.4c.1.681.218,1.414.35,2.18a18.316,18.316,0,0,1,.253,2.181,4.113,4.113,0,0,1-.236,1.773A1.221,1.221,0,0,1,74.658.527Zm.16-4.751c0,.412-.011.818-.021,1.214-.016.595-.035,1.15-.059,1.651-.016.343-.027.639-.031.885a.224.224,0,0,0,.218-.173,3.212,3.212,0,0,0,.162-1.344,17.319,17.319,0,0,0-.239-2.061Zm-.781-5.153.165.186a1.464,1.464,0,0,1,.277.512.965.965,0,0,1,.767-.673h.009a21.18,21.18,0,0,1,2.737-.216c.314-.005.627-.008.93-.008.577,0,1.143.01,1.684.029l.03-.015.058-.03a1.611,1.611,0,0,0,.18-.286,1.43,1.43,0,0,0-.483-.1,8.432,8.432,0,0,0-1.5.057l-1.771.2c-.575.064-1.071.1-1.475.108h-.064c-.931,0-1.032-.506-1.032-.723v-.557c-.005.344-.008.593-.008.744v.466l-.465.033a11.534,11.534,0,0,0-2.166.309,6.71,6.71,0,0,0,.723.034c.336,0,.725-.017,1.158-.052ZM74.33-17.3a.28.28,0,0,0-.009.038l-.005.026a1.354,1.354,0,0,0-.013.382c.015.2.037.4.066.6s.062.4.092.589.056.344.072.457l.005.035v.036c0,.151,0,.4.008.736V-17.3a.2.2,0,0,0-.09-.026A.259.259,0,0,0,74.33-17.3ZM104.42.508a3.163,3.163,0,0,1-1.162-.23,4.288,4.288,0,0,1-1.8-1.5,6.717,6.717,0,0,1-.9-1.787,10.981,10.981,0,0,1-.6,1,8.593,8.593,0,0,1-.958,1.17,4.229,4.229,0,0,1-1.185.875,2.56,2.56,0,0,1-1.38.246,2.364,2.364,0,0,1-1.444-.793,3.763,3.763,0,0,1-.872-1.639,11.784,11.784,0,0,1-.4-2.277,19.457,19.457,0,0,1-.036-2.659A20.412,20.412,0,0,1,94-9.831a16.048,16.048,0,0,1,.678-2.5,6.976,6.976,0,0,1,1.089-2.007,3.245,3.245,0,0,1,1.608-1.126,2.751,2.751,0,0,1,2.072.307l.016.009a3.082,3.082,0,0,1,.831.751,8.8,8.8,0,0,1,.734,1.056,11.16,11.16,0,0,1,.6,1.153,9.156,9.156,0,0,1,.384.981l.008.025.005.026a4.212,4.212,0,0,1,.021.823c-.008.4-.02.884-.035,1.445s-.011,1.166.012,1.832.077,1.314.16,1.944a9.087,9.087,0,0,0,.388,1.71,2.942,2.942,0,0,0,.634,1.123,1.215,1.215,0,0,0,.85.365,2.793,2.793,0,0,0,1.426-.481.744.744,0,0,0,.253-.347,2.08,2.08,0,0,0,.058-.431.98.98,0,0,1,.131-.57.548.548,0,0,1,.466-.242,1.367,1.367,0,0,1,.6.189l.1.051.07.091a2,2,0,0,1,.408,1.713,2.943,2.943,0,0,1-.814,1.465A3.464,3.464,0,0,1,105.2.4,2.916,2.916,0,0,1,104.42.508Zm-3.657-6.746.387,1.672a7.517,7.517,0,0,0,1.109,2.744,3.327,3.327,0,0,0,1.364,1.169,2.17,2.17,0,0,0,.8.161,1.916,1.916,0,0,0,.516-.072,2.445,2.445,0,0,0,1.105-.622,1.933,1.933,0,0,0,.545-.973q.008-.036.013-.07a2.049,2.049,0,0,1-.5.613l-.035.031-.04.024a3.874,3.874,0,0,1-1.922.646l-.1,0a2.2,2.2,0,0,1-1.517-.666,3.919,3.919,0,0,1-.866-1.5,10.088,10.088,0,0,1-.432-1.9c-.088-.661-.144-1.348-.168-2.041s-.028-1.324-.012-1.894.027-1.042.035-1.437,0-.546,0-.6a8.679,8.679,0,0,0-.33-.83,10.164,10.164,0,0,0-.547-1.05,7.8,7.8,0,0,0-.649-.936,2.194,2.194,0,0,0-.545-.511,2.923,2.923,0,0,0-.376-.165,4.057,4.057,0,0,1,1.533,1.66,6.882,6.882,0,0,1,.671,2.35,10.173,10.173,0,0,1-.073,2.625,16.156,16.156,0,0,1-.6,2.564,11.344,11.344,0,0,1-.982,2.219,6.3,6.3,0,0,1-1.215,1.553,1.972,1.972,0,0,1-1.3.554h0a1.551,1.551,0,0,1-.2-.013,1.494,1.494,0,0,1-1-.652,1.8,1.8,0,0,0,.275.366l.007.007a1.42,1.42,0,0,0,.827.493,1.547,1.547,0,0,0,.847-.153,3.239,3.239,0,0,0,.9-.672,7.589,7.589,0,0,0,.846-1.033,9.746,9.746,0,0,0,.658-1.114,8.522,8.522,0,0,0,.409-.927ZM98.053-13.6a2.706,2.706,0,0,0-.913.877,7.932,7.932,0,0,0-.869,1.764A13.177,13.177,0,0,0,95.7-8.729a16.056,16.056,0,0,0-.227,2.364,14.617,14.617,0,0,0,.113,2.187,5.643,5.643,0,0,0,.426,1.623c.178.377.379.607.549.63a.547.547,0,0,0,.07,0h0a1.024,1.024,0,0,0,.637-.307,5.332,5.332,0,0,0,1.011-1.307,10.344,10.344,0,0,0,.893-2.023,15.15,15.15,0,0,0,.567-2.4,9.173,9.173,0,0,0,.067-2.367,5.887,5.887,0,0,0-.571-2.01A3.035,3.035,0,0,0,98.053-13.6Zm-.473-.881a2.279,2.279,0,0,0-1.04.773,5.861,5.861,0,0,0-.883,1.6,8.129,8.129,0,0,1,.654-1.177A3.681,3.681,0,0,1,97.581-14.486ZM125.1.471A9.968,9.968,0,0,1,123.308.3a9.513,9.513,0,0,1-1.993-.548,3.606,3.606,0,0,1-1.263-.837,2.351,2.351,0,0,1-.592-1.2,6.48,6.48,0,0,1-.077-1.322c.016-.462.052-.981.108-1.544.053-.538.088-1.143.1-1.8V-8.414c0-.54-.008-1.091-.023-1.638s-.031-1.1-.047-1.628-.027-1.005-.035-1.411c-.005-.27-.012-.506-.021-.7a.766.766,0,0,1-.179.021.81.81,0,0,1-.285-.053c-.889-.337-1-.916-.98-1.231a2.164,2.164,0,0,1,.689-1.353,6.9,6.9,0,0,1,1.567-1.167,11.244,11.244,0,0,1,2.171-.933,12.049,12.049,0,0,1,2.519-.5c.262-.024.526-.037.785-.037a8.037,8.037,0,0,1,1.781.2,3.113,3.113,0,0,1,2.162.606,1.889,1.889,0,0,1,.587,1.575,4.712,4.712,0,0,1-.546,1.734,14.457,14.457,0,0,1-.971,1.627c-.309.446-.593.841-.845,1.178a11.1,11.1,0,0,1,3.153.938,6.234,6.234,0,0,1,2.3,1.817,4.087,4.087,0,0,1,.811,2.358,5.423,5.423,0,0,1-.527,2.425A7.8,7.8,0,0,1,132.084-2.4a9.545,9.545,0,0,1-2.4,1.732,10.729,10.729,0,0,1-2.987,1A8.975,8.975,0,0,1,125.1.471Zm-4.59-5.757q-.01.121-.022.238c-.053.541-.088,1.039-.1,1.48a5.485,5.485,0,0,0,.063,1.116,1.348,1.348,0,0,0,.345.7,2.637,2.637,0,0,0,.917.592,7.58,7.58,0,0,0,1.389.408q-.387-.109-.777-.249a1.8,1.8,0,0,1-.411-.235,4.872,4.872,0,0,1-.483-.379,2.586,2.586,0,0,1-.435-.495.806.806,0,0,1-.021-.934l.371-.56a.707.707,0,0,1-.291.067.553.553,0,0,1-.395-.161l-.146-.146Zm2.156,3.343a9.122,9.122,0,0,0,3.081.567c.209,0,.419-.008.626-.025a7.1,7.1,0,0,0,3.144-.961,5.622,5.622,0,0,0,2.079-2.209,5.51,5.51,0,0,0,.547-3.18,2.026,2.026,0,0,0-.686-.988,4.31,4.31,0,0,0-1.2-.683l-.011,0a7.7,7.7,0,0,0-2.446-.61,3.9,3.9,0,0,0-1.62.243,3.626,3.626,0,0,0-1.155.751l-1.078,1.055a6.6,6.6,0,0,1-1.23.951,2.951,2.951,0,0,1-1.209.391v1.809c.128-.064.26-.123.392-.176a1.269,1.269,0,0,1,.655-.1l.429.061v.772L121.872-2.6a1.664,1.664,0,0,0,.218.233,3.868,3.868,0,0,0,.384.3C122.595-1.982,122.647-1.952,122.664-1.943Zm10.51-5.294a7.135,7.135,0,0,1-.056,1.095A4.235,4.235,0,0,0,133.188-7Q133.185-7.119,133.174-7.237Zm-12.58-.4.428.012a2.139,2.139,0,0,0,1.183-.27,5.6,5.6,0,0,0,1.043-.807l1.078-1.055a4.62,4.62,0,0,1,1.47-.96,4.883,4.883,0,0,1,2.036-.319,7.073,7.073,0,0,1,1.854.35,13.493,13.493,0,0,0-2.645-.561l-.228-.028-.128-.191a.514.514,0,0,1-.086-.228q-.121.079-.246.155c-.582.354-1.184.7-1.79,1.031s-1.166.657-1.71.994a5.789,5.789,0,0,0-1.284,1.056l-.716.806L120.7-8.718c-.018-.127-.034-.335-.051-.654-.015-.293-.035-.61-.058-.941-.019-.277-.036-.544-.05-.795q.015.507.029,1.027c.016.557.024,1.117.024,1.666Zm.751-7.666c0,.166.01.377.022.629.015.307.035.631.058.963s.043.672.059.995.024.591.024.786c0,.115.008.319.023.607s.035.609.058.941c.012.175.023.346.034.512a7.619,7.619,0,0,1,.7-.492c.56-.347,1.151-.691,1.758-1.022.592-.323,1.18-.662,1.749-1.008a6.746,6.746,0,0,0,1.4-1.112,3.805,3.805,0,0,0,.829-1.347,3.114,3.114,0,0,0,.084-1.561,2.57,2.57,0,0,0-.761-.346,6.156,6.156,0,0,0-1.365-.227,8.355,8.355,0,0,0-1.537.055,6.984,6.984,0,0,0-1.454.338,3.973,3.973,0,0,0-1.125.6A1.785,1.785,0,0,0,121.344-15.3Zm-1.7-.176.718.718c-.012-.26-.018-.47-.018-.639v-.091l.032-.085a2.754,2.754,0,0,1,.91-1.2,4.968,4.968,0,0,1,1.407-.757q.1-.037.209-.071l-.149.046a10.246,10.246,0,0,0-1.978.848,5.918,5.918,0,0,0-1.339.989,1.264,1.264,0,0,0-.413.71c0,.072.109.143.208.192a.9.9,0,0,0,.082-.11ZM125.553-18c.175,0,.351.005.523.015a7.155,7.155,0,0,1,1.588.265,3.3,3.3,0,0,1,1.268.656l.126.111.033.164a5.65,5.65,0,0,1,.089.585,2.784,2.784,0,0,0,.107-.55.885.885,0,0,0-.28-.768c-.13-.124-.5-.331-1.53-.331h-.058l-.057-.013a7.145,7.145,0,0,0-2.3-.153q-.558.052-1.1.154.192-.033.389-.058A9.562,9.562,0,0,1,125.553-18ZM135.48.453a1.115,1.115,0,0,1-.671-.226,1.167,1.167,0,0,1-.43-.646,4.555,4.555,0,0,1-.091-1.078c-.016-.54-.028-1.2-.035-1.966s0-1.611.012-2.51.035-1.749.059-2.537.055-1.488.095-2.07a6,6,0,0,1,.149-1.212L134.63-12l.193-.1a.849.849,0,0,1,.725-.012,1.546,1.546,0,0,1,.432.277,1.646,1.646,0,0,1,.32.4,1.063,1.063,0,0,1,.16.529V-.562a.981.981,0,0,1-.3.755A.986.986,0,0,1,135.48.453Zm-.143-1.161,0,.014a.237.237,0,0,0,.059.115.162.162,0,0,0,.06.03s0-.009,0-.014V-10.875a.333.333,0,0,0-.014-.031c-.01.11-.02.24-.03.393-.038.57-.07,1.253-.093,2.032s-.043,1.634-.058,2.525-.019,1.725-.012,2.482.02,1.414.035,1.948A6.778,6.778,0,0,0,135.338-.708ZM92.456.4h-.073a1.216,1.216,0,0,1-.826-.357,1.155,1.155,0,0,1-.3-.987A33.026,33.026,0,0,0,90.9-7.841a9.2,9.2,0,0,0-1.269-3.6,1.467,1.467,0,0,0-1.114-.737,1.038,1.038,0,0,0-.251.032,3.113,3.113,0,0,0-1.658,1.484,13.723,13.723,0,0,0-1.531,3.808,25.443,25.443,0,0,0-.745,5.768l0,.074-.023.07a.776.776,0,0,1-.741.612h-.046a1.123,1.123,0,0,1-.673-.3,2.084,2.084,0,0,1-.433-.538,1.37,1.37,0,0,1-.207-.682c0-.055,0-.161.038-.5.023-.231.047-.482.07-.744s.042-.509.058-.739c.02-.3.022-.389.022-.412,0-.146,0-.369.012-.681s.012-.646.012-1.03V-8.4c0-.377,0-.723-.012-1.031s-.012-.554-.012-.716c0-.038,0-.151-.023-.474q-.024-.388-.047-.824c-.015-.282-.035-.561-.057-.828s-.042-.46-.057-.578l0-.031v-.031c0-.014,0-.105-.054-.484-.039-.291-.079-.609-.118-.947s-.075-.652-.106-.941c-.04-.371-.058-.478-.063-.506l-.005-.026,0-.026a2.507,2.507,0,0,1,.021-.746.853.853,0,0,1,.441-.627.7.7,0,0,1,.314-.074c.445,0,.791.405,1.043.758l.078.109.013.133c.125,1.285.213,2.569.26,3.815.02.527.05,1.06.09,1.595a10.258,10.258,0,0,1,.567-1.053,6.2,6.2,0,0,1,1.122-1.351,3.838,3.838,0,0,1,1.57-.86,4.326,4.326,0,0,1,1.212-.191,2.863,2.863,0,0,1,.854.125,3.287,3.287,0,0,1,1.5.978,5.17,5.17,0,0,1,.95,1.646,13.779,13.779,0,0,1,.56,1.995,19.065,19.065,0,0,1,.313,2.178c.062.726.118,1.426.165,2.081s.086,1.261.118,1.8A10.056,10.056,0,0,0,93.186-2.3a.459.459,0,0,0,.011.048c.175.037.338.074.486.111a.813.813,0,0,1,.641.656c.05.285-.079.621-.463,1.2l-.006.009a1.486,1.486,0,0,1-.681.529A1.93,1.93,0,0,1,92.456.4Zm-.175-2.243q-.008.465-.023.949l0,.042a.338.338,0,0,0,.01.186.211.211,0,0,0,.158.065.906.906,0,0,0,.38-.07.5.5,0,0,0,.23-.17c.108-.163.178-.282.224-.366-.1-.023-.2-.046-.312-.068A.915.915,0,0,1,92.281-1.847Zm-8.859-6.78q0,.111,0,.225v2.449c0,.393,0,.748-.012,1.056s-.012.52-.012.655c0,.051,0,.152-.025.479-.016.237-.036.493-.059.761s-.047.521-.071.756c-.031.311-.033.384-.033.4a.461.461,0,0,0,.075.186q.031.055.066.1a25.779,25.779,0,0,1,.763-5.551A14.684,14.684,0,0,1,85.771-11.2a4.028,4.028,0,0,1,2.256-1.914,2.038,2.038,0,0,1,.493-.062,2.407,2.407,0,0,1,1.915,1.139,5.686,5.686,0,0,1,.667,1.212q-.068-.21-.143-.412a4.18,4.18,0,0,0-.761-1.33,2.27,2.27,0,0,0-1.052-.686,2.6,2.6,0,0,0-1.49.073l-.01,0a2.809,2.809,0,0,0-1.168.639,5.2,5.2,0,0,0-.941,1.133A9.371,9.371,0,0,0,84.827-10c-.2.507-.377.993-.512,1.445Zm52.546-5.752a1.851,1.851,0,0,1-.362-.036,2.093,2.093,0,0,1-.569-.2.853.853,0,0,1-.474-.564,1.466,1.466,0,0,1-.048-.278c-.009-.1-.014-.21-.014-.326s0-.226.014-.326a.958.958,0,0,1,.086-.354l.075-.149.149-.075a3.152,3.152,0,0,1,.5-.2,1.548,1.548,0,0,1,.725-.036l.189.034.117.152a3.559,3.559,0,0,1,.583.98,1.1,1.1,0,0,1-.021.886.908.908,0,0,1-.68.47A1.745,1.745,0,0,1,135.967-14.379Zm-.451-1.115a1.1,1.1,0,0,0,.285.1.822.822,0,0,0,.207.016c0-.017-.01-.036-.017-.059a2.086,2.086,0,0,0-.292-.506.494.494,0,0,0-.086.018l-.111.036q0,.051,0,.106c0,.086,0,.165.01.236C135.512-15.526,135.514-15.508,135.516-15.494Z" transform="translate(526 452)"/>
  </g>
</svg>
