<svg xmlns="http://www.w3.org/2000/svg" width="173.927" height="27.629" viewBox="0 0 173.927 27.629">
  <path id="Sbishop" d="M6.82-.187A3.97,3.97,0,0,1,5.719-.7a9.1,9.1,0,0,1-1.254-.961,10.1,10.1,0,0,1-1.148-1.23A5.186,5.186,0,0,1,2.531-4.23a2.447,2.447,0,0,1-.152-1.3,1.806,1.806,0,0,1,.738-1.125A1.959,1.959,0,0,1,3.5-6.844a2.742,2.742,0,0,1,.586-.164.642.642,0,0,1,.469.07q.176.117.059.492a1.739,1.739,0,0,0-1.031.914,1.7,1.7,0,0,0,.012,1.2A3.951,3.951,0,0,0,4.371-3.07,7.264,7.264,0,0,0,5.625-1.934,7.828,7.828,0,0,0,7.09-1.1a3.6,3.6,0,0,0,1.418.328,1.733,1.733,0,0,0,1.113-.363,1.7,1.7,0,0,0,.527-1.254A8.419,8.419,0,0,0,10-4.617a5.057,5.057,0,0,0-.949-2.039A7.13,7.13,0,0,0,7.793-7.922,12.419,12.419,0,0,0,6.5-8.789q-.645-.375-1.289-.7a9.293,9.293,0,0,1-1.242-.762,6.558,6.558,0,0,1-1.113-1.031A6.427,6.427,0,0,1,1.922-12.8a3.567,3.567,0,0,1-.316-2.238,3.58,3.58,0,0,1,.938-1.781,4.413,4.413,0,0,1,1.781-1.1,4.925,4.925,0,0,1,2.215-.223,2.687,2.687,0,0,1,1.289.539A4.105,4.105,0,0,1,8.8-16.559,3.738,3.738,0,0,1,9.328-15.3a2.053,2.053,0,0,1-.047,1.16,1.31,1.31,0,0,1-.762.75,2.872,2.872,0,0,1-1.605.059.577.577,0,0,1,.094-.609,2.763,2.763,0,0,1,.492-.387q.281-.176.516-.352a.5.5,0,0,0,.188-.5,2.441,2.441,0,0,0-.867-1.652,2.419,2.419,0,0,0-1.512-.492,3.335,3.335,0,0,0-1.629.469,3.21,3.21,0,0,0-1.23,1.23,2.9,2.9,0,0,0-.316,1.793,4.126,4.126,0,0,0,1.125,2.168,6.813,6.813,0,0,0,1.43,1.3q.68.434,1.348.773t1.371.762A6.873,6.873,0,0,1,9.4-7.57a6.929,6.929,0,0,1,1.1,1.652,6.8,6.8,0,0,1,.6,1.875,5.379,5.379,0,0,1,0,1.8A2.957,2.957,0,0,1,10.441-.8a2.492,2.492,0,0,1-1.395.785A4.655,4.655,0,0,1,6.82-.187ZM13.2-.867a3.314,3.314,0,0,1-.75-1.43,11.233,11.233,0,0,1-.387-2.18,18.868,18.868,0,0,1-.035-2.59,19.818,19.818,0,0,1,.316-2.672A15.473,15.473,0,0,1,13-12.164,6.452,6.452,0,0,1,14-14.027a2.745,2.745,0,0,1,1.359-.961,2.252,2.252,0,0,1,1.7.27,2.63,2.63,0,0,1,.691.633,8.263,8.263,0,0,1,.691,1,10.614,10.614,0,0,1,.574,1.1,8.772,8.772,0,0,1,.363.926,5.278,5.278,0,0,1,.012.715q-.012.6-.035,1.441t.012,1.863q.035,1.02.164,1.992a9.544,9.544,0,0,0,.41,1.8,3.414,3.414,0,0,0,.75,1.313,1.708,1.708,0,0,0,1.184.516,3.3,3.3,0,0,0,1.746-.574,1.272,1.272,0,0,0,.445-.645,2.55,2.55,0,0,0,.07-.539.6.6,0,0,1,.047-.293q.047-.07.422.117a1.516,1.516,0,0,1,.316,1.3,2.44,2.44,0,0,1-.68,1.219,2.958,2.958,0,0,1-1.324.75,2.5,2.5,0,0,1-1.629-.105,3.788,3.788,0,0,1-1.582-1.336,7.953,7.953,0,0,1-1.2-2.93,8.964,8.964,0,0,1-.434.984A10.2,10.2,0,0,1,17.391-2.3a8.053,8.053,0,0,1-.9,1.1,3.717,3.717,0,0,1-1.043.773,2.053,2.053,0,0,1-1.113.2A1.88,1.88,0,0,1,13.2-.867Zm.211-1.477q.4.844.938.914a1.4,1.4,0,0,0,1.1-.422,5.788,5.788,0,0,0,1.113-1.43A10.794,10.794,0,0,0,17.5-5.4a15.581,15.581,0,0,0,.586-2.484,9.628,9.628,0,0,0,.07-2.5,6.355,6.355,0,0,0-.621-2.18,3.579,3.579,0,0,0-1.5-1.547.114.114,0,0,0-.082-.023h-.105a3.071,3.071,0,0,0-1.266,1.125,8.39,8.39,0,0,0-.926,1.875,13.613,13.613,0,0,0-.6,2.32,16.48,16.48,0,0,0-.234,2.438,15.051,15.051,0,0,0,.117,2.262A6.1,6.1,0,0,0,13.406-2.344ZM40.523-.352a2.085,2.085,0,0,1-.117-.211,1.91,1.91,0,0,1-.117-.293q-.047-.152-.094-.27a.537.537,0,0,1-.047-.164q.023-.281.082-.867t.117-1.312q.059-.727.117-1.547t.059-1.559q0-.738-.059-1.348a2.745,2.745,0,0,0-.223-.937,1.679,1.679,0,0,0-.762-.8,2.871,2.871,0,0,0-1.09-.3,3.359,3.359,0,0,0-2.215.469,4.614,4.614,0,0,0-1.441,1.559,8.812,8.812,0,0,0-.879,2.168q-.316,1.2-.539,2.285t-.422,1.9a1.765,1.765,0,0,1-.5,1.02A.468.468,0,0,1,32-.445a.466.466,0,0,1-.258-.223,1.861,1.861,0,0,1-.176-.4,2.336,2.336,0,0,1-.094-.41q.023-.867.129-2.109t.152-2.555q.047-1.312-.012-2.52a6.826,6.826,0,0,0-.363-2.027q-.352-.984-.75-1.172a.716.716,0,0,0-.82.188,3.99,3.99,0,0,0-.832,1.2A17.608,17.608,0,0,0,28.2-8.625q-.375,1.031-.7,2.156t-.574,2.121q-.246,1-.41,1.723t-.187.961q-.07.469-.375.492a.8.8,0,0,1-.586-.211,1.2,1.2,0,0,1-.387-.633.765.765,0,0,1,.223-.75q.023-.4.023-1.219T25.2-5.836q-.023-1.031-.035-2.18t-.012-2.2q0-1.055.035-1.91a13.15,13.15,0,0,1,.105-1.324q.047-.281.211-.316a.529.529,0,0,1,.352.059,1.039,1.039,0,0,1,.34.281,1.02,1.02,0,0,1,.2.352,5.578,5.578,0,0,1,.152.926q.035.457.059.914l.047.914a4.832,4.832,0,0,0,.141.926q.211-.445.563-1.078a10.2,10.2,0,0,1,.8-1.219,7.114,7.114,0,0,1,.949-1.031,2.135,2.135,0,0,1,1.008-.539,1.187,1.187,0,0,1,.973.27,3.231,3.231,0,0,1,.867,1.371,6.481,6.481,0,0,1,.223.832q.105.5.223,1.043a10.728,10.728,0,0,0,.281,1.043,2.726,2.726,0,0,0,.375.785,2.308,2.308,0,0,0,.691-.633q.293-.4.586-.832a9.332,9.332,0,0,1,.633-.832,2.685,2.685,0,0,1,.855-.656,5.656,5.656,0,0,1,2.871-.352,3.227,3.227,0,0,1,1.816,1,4.475,4.475,0,0,1,.973,1.9A10.637,10.637,0,0,1,41.8-5.977,14.066,14.066,0,0,1,41.672-3.6a13.17,13.17,0,0,1-.4,1.934l.164.188q.117.117.551-.164t.949-.633q.516-.352.984-.645t.656-.223v.375a3.969,3.969,0,0,0-.457.5q-.27.34-.609.715t-.727.738a3.8,3.8,0,0,1-.773.574,1.6,1.6,0,0,1-.773.211A1,1,0,0,1,40.523-.352Zm5.813-.516a3.314,3.314,0,0,1-.75-1.43,11.233,11.233,0,0,1-.387-2.18,18.868,18.868,0,0,1-.035-2.59,19.818,19.818,0,0,1,.316-2.672,15.473,15.473,0,0,1,.656-2.426,6.452,6.452,0,0,1,1.008-1.863,2.745,2.745,0,0,1,1.359-.961,2.252,2.252,0,0,1,1.7.27,2.63,2.63,0,0,1,.691.633,8.263,8.263,0,0,1,.691,1,10.614,10.614,0,0,1,.574,1.1,8.772,8.772,0,0,1,.363.926,5.278,5.278,0,0,1,.012.715q-.012.6-.035,1.441t.012,1.863q.035,1.02.164,1.992a9.544,9.544,0,0,0,.41,1.8,3.414,3.414,0,0,0,.75,1.313,1.708,1.708,0,0,0,1.184.516,3.3,3.3,0,0,0,1.746-.574,1.272,1.272,0,0,0,.445-.645,2.55,2.55,0,0,0,.07-.539.6.6,0,0,1,.047-.293q.047-.07.422.117a1.516,1.516,0,0,1,.316,1.3,2.44,2.44,0,0,1-.68,1.219,2.958,2.958,0,0,1-1.324.75,2.5,2.5,0,0,1-1.629-.105,3.788,3.788,0,0,1-1.582-1.336,7.953,7.953,0,0,1-1.2-2.93,8.964,8.964,0,0,1-.434.984A10.2,10.2,0,0,1,50.531-2.3a8.053,8.053,0,0,1-.9,1.1,3.717,3.717,0,0,1-1.043.773,2.053,2.053,0,0,1-1.113.2A1.88,1.88,0,0,1,46.336-.867Zm.211-1.477q.4.844.938.914a1.4,1.4,0,0,0,1.1-.422A5.788,5.788,0,0,0,49.7-3.281,10.794,10.794,0,0,0,50.637-5.4a15.581,15.581,0,0,0,.586-2.484,9.628,9.628,0,0,0,.07-2.5,6.355,6.355,0,0,0-.621-2.18,3.579,3.579,0,0,0-1.5-1.547.114.114,0,0,0-.082-.023h-.105a3.071,3.071,0,0,0-1.266,1.125,8.39,8.39,0,0,0-.926,1.875,13.613,13.613,0,0,0-.6,2.32,16.48,16.48,0,0,0-.234,2.438,15.051,15.051,0,0,0,.117,2.262A6.1,6.1,0,0,0,46.547-2.344ZM57.8-.187a.789.789,0,0,1-.117-.187l-.094-.187a12.149,12.149,0,0,0,.152-1.371Q57.82-3,57.926-4.406t.258-2.93q.152-1.523.34-2.719a8.909,8.909,0,0,1,.445-1.84q.258-.645.586-.316a6.657,6.657,0,0,1,1.313,1.3,19.067,19.067,0,0,1,1.172,1.7q.563.914,1.09,1.887t1.1,1.852a12.956,12.956,0,0,0,1.219,1.594,5.119,5.119,0,0,0,1.395,1.113h.164q.047-.562.105-1.395t.129-1.816q.07-.984.141-2.027t.176-2.039q.105-1,.223-1.84t.258-1.43q.023-.047.105-.2a3.208,3.208,0,0,1,.188-.3,1.15,1.15,0,0,1,.223-.246.17.17,0,0,1,.234,0l1.1,1.125q.07.07-.082.293t-.363.492q-.211.27-.422.516a1.015,1.015,0,0,0-.234.363,11.973,11.973,0,0,0-.281,1.465q-.117.855-.187,1.828t-.117,2q-.047,1.031-.082,2t-.047,1.84q-.012.867-.035,1.5a3.135,3.135,0,0,1-1.617-.516,7.08,7.08,0,0,1-1.488-1.3,15.963,15.963,0,0,1-1.383-1.828Q62.883-5.3,62.262-6.34T61.055-8.391Q60.469-9.4,59.93-10.172h-.211q-.094,0-.152.5t-.105,1.3q-.047.8-.094,1.816t-.129,2.039q-.082,1.02-.2,1.945a12.69,12.69,0,0,1-.281,1.559,2.162,2.162,0,0,1-.4.891Q58.125.141,57.8-.187Zm16.406,0q0-.445.035-1.2T74.3-3.023q.023-.891.023-1.828t-.047-1.758a12.768,12.768,0,0,0-.152-1.43,1.753,1.753,0,0,0-.293-.82,9.352,9.352,0,0,1-2.25-.023q-.773-.141-.785-.375t.785-.5a10.616,10.616,0,0,1,2.461-.387q0-.281.012-1t.012-1.512q0-.8-.012-1.5t-.012-.984q-.023-.164-.07-.445t-.094-.6q-.047-.316-.07-.633a1.852,1.852,0,0,1,.023-.527.5.5,0,0,1,.246-.387.772.772,0,0,1,.41-.094.708.708,0,0,1,.387.141.4.4,0,0,1,.176.34v7.008q0,.234.586.223t1.43-.105l1.77-.2a8.865,8.865,0,0,1,1.594-.059,1.3,1.3,0,0,1,.9.316q.234.27-.281.926a.789.789,0,0,1-.187.117.566.566,0,0,1-.187.07Q79.406-9.094,78-9.07a20.579,20.579,0,0,0-2.672.211q-.422.07-.457.785a9.171,9.171,0,0,0,.117,1.746q.152,1.031.352,2.191a17.731,17.731,0,0,1,.246,2.121,3.671,3.671,0,0,1-.2,1.559.789.789,0,0,1-1,.457.192.192,0,0,1-.117-.07A.192.192,0,0,1,74.2-.187ZM91.758-.914a33.392,33.392,0,0,0-.363-7.02,9.6,9.6,0,0,0-1.359-3.809,1.77,1.77,0,0,0-1.887-.891,3.55,3.55,0,0,0-1.957,1.7A14.135,14.135,0,0,0,84.6-6.984,25.814,25.814,0,0,0,83.836-1.1q-.094.281-.281.27a.635.635,0,0,1-.375-.176,1.58,1.58,0,0,1-.328-.41.9.9,0,0,1-.141-.434q0-.094.035-.445t.07-.75q.035-.4.059-.75t.023-.445q0-.211.012-.668t.012-1.043V-8.4q0-.574-.012-1.043t-.012-.7q0-.117-.023-.5t-.047-.82q-.023-.434-.059-.844t-.059-.6q0-.117-.059-.551t-.117-.937q-.059-.5-.105-.937t-.07-.551q-.07-.75.188-.879t.727.527q.188,1.922.258,3.785t.3,3.762q.211-.7.527-1.488a9.827,9.827,0,0,1,.75-1.488,5.67,5.67,0,0,1,1.031-1.242,3.327,3.327,0,0,1,1.371-.75,3.057,3.057,0,0,1,1.781-.07,2.781,2.781,0,0,1,1.277.832,4.654,4.654,0,0,1,.855,1.488,13.219,13.219,0,0,1,.539,1.922,18.481,18.481,0,0,1,.3,2.121q.094,1.09.164,2.074T92.555-3.5A10.479,10.479,0,0,0,92.7-2.2q.07.375.352.434t.516.117a.32.32,0,0,1,.27.258q.035.2-.387.832a.99.99,0,0,1-.457.352,1.412,1.412,0,0,1-.586.105.711.711,0,0,1-.492-.211A.69.69,0,0,1,91.758-.914Zm3.586.047a3.314,3.314,0,0,1-.75-1.43,11.233,11.233,0,0,1-.387-2.18,18.868,18.868,0,0,1-.035-2.59,19.818,19.818,0,0,1,.316-2.672,15.473,15.473,0,0,1,.656-2.426,6.452,6.452,0,0,1,1.008-1.863,2.745,2.745,0,0,1,1.359-.961,2.252,2.252,0,0,1,1.7.27,2.63,2.63,0,0,1,.691.633,8.263,8.263,0,0,1,.691,1,10.614,10.614,0,0,1,.574,1.1,8.772,8.772,0,0,1,.363.926,5.278,5.278,0,0,1,.012.715q-.012.6-.035,1.441t.012,1.863q.035,1.02.164,1.992a9.544,9.544,0,0,0,.41,1.8,3.414,3.414,0,0,0,.75,1.313,1.708,1.708,0,0,0,1.184.516,3.3,3.3,0,0,0,1.746-.574,1.272,1.272,0,0,0,.445-.645,2.55,2.55,0,0,0,.07-.539.6.6,0,0,1,.047-.293q.047-.07.422.117a1.516,1.516,0,0,1,.316,1.3,2.44,2.44,0,0,1-.68,1.219,2.958,2.958,0,0,1-1.324.75,2.5,2.5,0,0,1-1.629-.105,3.788,3.788,0,0,1-1.582-1.336,7.953,7.953,0,0,1-1.2-2.93,8.964,8.964,0,0,1-.434.984A10.2,10.2,0,0,1,99.539-2.3a8.053,8.053,0,0,1-.9,1.1,3.717,3.717,0,0,1-1.043.773,2.053,2.053,0,0,1-1.113.2A1.88,1.88,0,0,1,95.344-.867Zm.211-1.477q.4.844.938.914a1.4,1.4,0,0,0,1.1-.422,5.788,5.788,0,0,0,1.113-1.43A10.794,10.794,0,0,0,99.645-5.4a15.581,15.581,0,0,0,.586-2.484,9.628,9.628,0,0,0,.07-2.5,6.355,6.355,0,0,0-.621-2.18,3.579,3.579,0,0,0-1.5-1.547.114.114,0,0,0-.082-.023h-.105a3.071,3.071,0,0,0-1.266,1.125,8.39,8.39,0,0,0-.926,1.875,13.613,13.613,0,0,0-.6,2.32,16.48,16.48,0,0,0-.234,2.438,15.051,15.051,0,0,0,.117,2.262A6.1,6.1,0,0,0,95.555-2.344ZM123.4-.187A8.993,8.993,0,0,1,121.512-.7a3.1,3.1,0,0,1-1.09-.715,1.851,1.851,0,0,1-.469-.949,5.955,5.955,0,0,1-.07-1.219q.023-.68.105-1.512t.105-1.84V-8.414q0-.82-.023-1.652t-.047-1.629q-.023-.8-.035-1.406t-.035-.984q-.023-.375-.023-.4l-.187-.187a1.8,1.8,0,0,1-.223.281.293.293,0,0,1-.34.094q-.68-.258-.656-.738a1.687,1.687,0,0,1,.551-1.031,6.376,6.376,0,0,1,1.453-1.078,10.7,10.7,0,0,1,2.074-.891,11.5,11.5,0,0,1,2.414-.48,7.612,7.612,0,0,1,2.461.164,2.77,2.77,0,0,1,1.875.469,1.38,1.38,0,0,1,.434,1.172,4.2,4.2,0,0,1-.492,1.547,13.9,13.9,0,0,1-.937,1.57q-.5.727-.9,1.254t-.352.6a11.6,11.6,0,0,1,3.75,1,5.721,5.721,0,0,1,2.121,1.664,3.58,3.58,0,0,1,.715,2.074,4.905,4.905,0,0,1-.48,2.2,7.269,7.269,0,0,1-1.477,2.051,9,9,0,0,1-2.273,1.641,10.183,10.183,0,0,1-2.848.949A8.882,8.882,0,0,1,123.4-.187Zm-.914-1.289A9.311,9.311,0,0,0,126.41-.9a7.564,7.564,0,0,0,3.363-1.031,6.088,6.088,0,0,0,2.262-2.4,5.994,5.994,0,0,0,.6-3.516,2.538,2.538,0,0,0-.867-1.277,4.786,4.786,0,0,0-1.336-.762,8.141,8.141,0,0,0-2.613-.645,4.374,4.374,0,0,0-1.828.281,4.1,4.1,0,0,0-1.312.855L123.6-8.344a6.068,6.068,0,0,1-1.137.879,2.638,2.638,0,0,1-1.453.34v3.07q.047.047.223-.059t.4-.223a4.84,4.84,0,0,1,.457-.211.8.8,0,0,1,.4-.07v.188l-1.1,1.664a.308.308,0,0,0,.023.375,2.076,2.076,0,0,0,.352.4,4.352,4.352,0,0,0,.434.34A1.669,1.669,0,0,0,122.484-1.477ZM121.008-11.93q0,.188.023.633t.059.949q.035.5.059.949t.047.609a6.257,6.257,0,0,1,1.395-1.148q.832-.516,1.734-1.008t1.77-1.02a7.212,7.212,0,0,0,1.5-1.2,4.283,4.283,0,0,0,.938-1.523,3.714,3.714,0,0,0,.07-2,2.8,2.8,0,0,0-1.078-.551,6.624,6.624,0,0,0-1.477-.246,8.816,8.816,0,0,0-1.629.059,7.45,7.45,0,0,0-1.559.363,4.449,4.449,0,0,0-1.266.68,2.252,2.252,0,0,0-.75.984q0,.281.023.75t.059.973q.035.5.059.984T121.008-11.93ZM134.859-.562a5.482,5.482,0,0,1-.07-.949q-.023-.809-.035-1.957t.012-2.5q.023-1.348.059-2.531t.094-2.051a6.655,6.655,0,0,1,.129-1.1.347.347,0,0,1,.3,0,1.043,1.043,0,0,1,.293.188,1.142,1.142,0,0,1,.223.281.593.593,0,0,1,.094.281V-.562a.5.5,0,0,1-.141.387.485.485,0,0,1-.34.129.623.623,0,0,1-.375-.129A.682.682,0,0,1,134.859-.562Zm.188-14.742a.927.927,0,0,1-.035-.2q-.012-.129-.012-.281t.012-.281a.559.559,0,0,1,.035-.176,2.639,2.639,0,0,1,.422-.164,1.042,1.042,0,0,1,.492-.023,3.141,3.141,0,0,1,.5.832.631.631,0,0,1,.012.492.407.407,0,0,1-.316.211,1.289,1.289,0,0,1-.457-.012,1.586,1.586,0,0,1-.434-.152A.371.371,0,0,1,135.047-15.3ZM141.023.117q-.211-.117-.574-.293t-.762-.41a8.567,8.567,0,0,1-.762-.5,2.843,2.843,0,0,1-.6-.586,1.249,1.249,0,0,1-.258-.668,1.092,1.092,0,0,1,.258-.727q.047-.047.316.246t.691.7q.422.41.961.844a4.274,4.274,0,0,0,1.1.656,2.163,2.163,0,0,0,1.125.141,1.623,1.623,0,0,0,1.031-.691,1.67,1.67,0,0,0,.27-.6,2.283,2.283,0,0,0,.059-.691,4.1,4.1,0,0,0-.105-.691,2.912,2.912,0,0,0-.223-.621,5.108,5.108,0,0,0-.949-1.336q-.645-.68-1.383-1.383t-1.441-1.43a6.591,6.591,0,0,1-1.1-1.477,3.089,3.089,0,0,1-.387-1.512,2.494,2.494,0,0,1,.691-1.559,1.725,1.725,0,0,1,1.348-.609,3.866,3.866,0,0,1,1.594.352,5.1,5.1,0,0,1,1.383.9,2.381,2.381,0,0,1,.738,1.066,1.1,1.1,0,0,1,.047.457.827.827,0,0,1-.141.41.583.583,0,0,1-.34.223.946.946,0,0,1-.574-.082,1.1,1.1,0,0,1-.621-.609q-.223-.469-.469-.926a2.053,2.053,0,0,0-.633-.727,1.294,1.294,0,0,0-1.137-.035q-.844.281-.914.855a2.2,2.2,0,0,0,.34,1.313,8.912,8.912,0,0,0,1.125,1.547q.715.809,1.453,1.535l1.324,1.3a4.533,4.533,0,0,1,.727.832,6.907,6.907,0,0,1,.5,1.348,4.416,4.416,0,0,1,.152,1.582,2.522,2.522,0,0,1-.516,1.348,1.961,1.961,0,0,1-1.5.645,3.492,3.492,0,0,1-.387.035q-.246.012-.5.012a3.075,3.075,0,0,1-.527-.047A1.345,1.345,0,0,1,141.023.117ZM155.742-.914a33.392,33.392,0,0,0-.363-7.02,9.6,9.6,0,0,0-1.359-3.809,1.77,1.77,0,0,0-1.887-.891,3.55,3.55,0,0,0-1.957,1.7,14.135,14.135,0,0,0-1.594,3.949A25.814,25.814,0,0,0,147.82-1.1q-.094.281-.281.27a.635.635,0,0,1-.375-.176,1.58,1.58,0,0,1-.328-.41.9.9,0,0,1-.141-.434q0-.094.035-.445t.07-.75q.035-.4.059-.75t.023-.445q0-.211.012-.668t.012-1.043V-8.4q0-.574-.012-1.043t-.012-.7q0-.117-.023-.5t-.047-.82q-.023-.434-.059-.844t-.059-.6q0-.117-.059-.551t-.117-.937q-.059-.5-.105-.937t-.07-.551q-.07-.75.188-.879t.727.527q.188,1.922.258,3.785t.3,3.762q.211-.7.527-1.488a9.827,9.827,0,0,1,.75-1.488,5.67,5.67,0,0,1,1.031-1.242,3.327,3.327,0,0,1,1.371-.75,3.057,3.057,0,0,1,1.781-.07,2.781,2.781,0,0,1,1.277.832,4.654,4.654,0,0,1,.855,1.488,13.219,13.219,0,0,1,.539,1.922,18.481,18.481,0,0,1,.3,2.121q.094,1.09.164,2.074t.117,1.793a10.479,10.479,0,0,0,.141,1.3q.07.375.352.434t.516.117a.32.32,0,0,1,.27.258q.035.2-.387.832a.99.99,0,0,1-.457.352,1.412,1.412,0,0,1-.586.105.711.711,0,0,1-.492-.211A.69.69,0,0,1,155.742-.914Zm4.055.727a3.5,3.5,0,0,1-1.008-1.137,4.121,4.121,0,0,1-.434-1.312,4.87,4.87,0,0,1,0-1.43,11.5,11.5,0,0,1,.316-1.488q.141-.469.27-1.125T159.258-8a8.907,8.907,0,0,1,.445-1.242,2.58,2.58,0,0,1,.633-.9,1.5,1.5,0,0,1,.609-.316,3.192,3.192,0,0,1,.773-.117q.4-.012.773.012t.609.047a2.26,2.26,0,0,1,1.594.691,3.191,3.191,0,0,1,.75,1.535,6.479,6.479,0,0,1,.059,2.039,10.013,10.013,0,0,1-.516,2.215,10.979,10.979,0,0,1-.973,2.051,6.532,6.532,0,0,1-1.277,1.559,2.889,2.889,0,0,1-1.453.715A1.867,1.867,0,0,1,159.8-.187Zm.352-1.289a1.216,1.216,0,0,0,1.266.211,3.362,3.362,0,0,0,1.3-.961,7.708,7.708,0,0,0,1.113-1.7,8.443,8.443,0,0,0,.7-1.992,5,5,0,0,0,.07-1.852,1.833,1.833,0,0,0-.75-1.277,1.921,1.921,0,0,0-1.641-.363,2.777,2.777,0,0,0-1.359.914,5.774,5.774,0,0,0-.973,1.723,8.639,8.639,0,0,0-.5,2.063,6.251,6.251,0,0,0,.059,1.922A2.112,2.112,0,0,0,160.148-1.477Zm6.07,9.4a.748.748,0,0,1-.352-.727q.07-1.734.234-3.445t.375-3.4q.211-1.687.434-3.387t.434-3.434a1.653,1.653,0,0,0-.023-.457q-.047-.316-.094-.691t-.059-.762a1.933,1.933,0,0,1,.082-.668.652.652,0,0,1,.328-.4.932.932,0,0,1,.68.023.793.793,0,0,1,.223.164q.152.141.152.211a2.831,2.831,0,0,1,1.313-1.395,1.875,1.875,0,0,1,1.453,0,3.465,3.465,0,0,1,1.359,1.066,7.291,7.291,0,0,1,1.066,1.8,8.475,8.475,0,0,1,.586,2.2,6.322,6.322,0,0,1-.105,2.273,4.983,4.983,0,0,1-1,2.016,4.815,4.815,0,0,1-2.1,1.43,3.08,3.08,0,0,1-1.887.211,4.072,4.072,0,0,1-1.605-.937,31.491,31.491,0,0,0-.457,3.949q-.105,2-.293,4a1.152,1.152,0,0,1-.258.457Q166.57,8.156,166.219,7.922ZM169.008-.75q.023.023.082.094t.082.07a4.452,4.452,0,0,0,2.438-.293A3.11,3.11,0,0,0,173-2.145a4.166,4.166,0,0,0,.516-1.84A6.953,6.953,0,0,0,173.344-6a7.314,7.314,0,0,0-.68-1.8,3.505,3.505,0,0,0-1.008-1.219,1.343,1.343,0,0,0-1.172-.234,2.043,2.043,0,0,0-1.125,1.125,12.8,12.8,0,0,0-1.207,3.105,11.287,11.287,0,0,0-.246,3.34q.516-.586.738-.574t.293.293a2.282,2.282,0,0,1,.047.68A1.7,1.7,0,0,0,169.008-.75Z" transform="translate(-1.04 19.05)" fill="#fefcf8" stroke="#fefcf8" stroke-width="1"/>
</svg>
