<svg xmlns="http://www.w3.org/2000/svg" xmlns:xlink="http://www.w3.org/1999/xlink" width="546.245" height="420.577" viewBox="0 0 546.245 420.577">
  <defs>
    <linearGradient id="linear-gradient" x1="0.78" y1="0.287" x2="0.565" y2="0.782" gradientUnits="objectBoundingBox">
      <stop offset="0" stop-color="#856036"/>
      <stop offset="1" stop-color="#3b2303"/>
    </linearGradient>
    <linearGradient id="linear-gradient-2" x1="0.22" y1="0.287" x2="0.435" y2="0.782" xlink:href="#linear-gradient"/>
    <linearGradient id="linear-gradient-3" x1="0.291" y1="0.403" x2="0.5" y2="1.421" gradientUnits="objectBoundingBox">
      <stop offset="0" stop-color="#2a1a05"/>
      <stop offset="1" stop-color="#4c310f"/>
    </linearGradient>
    <linearGradient id="linear-gradient-4" x1="0.405" y1="0.562" x2="0.523" y2="0.822" gradientUnits="objectBoundingBox">
      <stop offset="0" stop-color="#2a1a05"/>
      <stop offset="1" stop-color="#452b0a"/>
    </linearGradient>
    <radialGradient id="radial-gradient" cx="0.5" cy="0.5" r="0.5" gradientUnits="objectBoundingBox">
      <stop offset="0" stop-color="#f0ffbb"/>
      <stop offset="1" stop-color="#99af51"/>
    </radialGradient>
    <linearGradient id="linear-gradient-5" x1="0.819" y1="0.678" x2="-0.001" y2="0.004" gradientUnits="objectBoundingBox">
      <stop offset="0" stop-color="#fff"/>
      <stop offset="0.247" stop-color="#fff4e3"/>
      <stop offset="0.565" stop-color="#efc68b"/>
      <stop offset="1" stop-color="#7b6445"/>
    </linearGradient>
    <filter id="Left" x="199.774" y="300.291" width="87.298" height="77.62" filterUnits="userSpaceOnUse">
      <feOffset dy="1" input="SourceAlpha"/>
      <feGaussianBlur stdDeviation="3" result="blur"/>
      <feFlood flood-opacity="0.302"/>
      <feComposite operator="in" in2="blur"/>
      <feComposite in="SourceGraphic"/>
    </filter>
    <linearGradient id="linear-gradient-6" x1="0.819" y1="0.322" x2="-0.001" y2="0.996" xlink:href="#linear-gradient-5"/>
    <filter id="Right" x="260.865" y="300.291" width="87.298" height="77.62" filterUnits="userSpaceOnUse">
      <feOffset dy="1" input="SourceAlpha"/>
      <feGaussianBlur stdDeviation="3" result="blur-2"/>
      <feFlood flood-opacity="0.302"/>
      <feComposite operator="in" in2="blur-2"/>
      <feComposite in="SourceGraphic"/>
    </filter>
    <linearGradient id="linear-gradient-7" x1="0.5" x2="0.5" y2="1" gradientUnits="objectBoundingBox">
      <stop offset="0" stop-color="#f6d5d5"/>
      <stop offset="1" stop-color="#3b2303"/>
    </linearGradient>
  </defs>
  <g id="Tweek" transform="translate(-567.949 -308.345)">
    <path id="Head" d="M141.915,403c-29.919-40.288-22.72-71.979-22.72-112.9a212.515,212.515,0,0,1,2.113-30.873L91.543,76.813l197.775,69.133c20.034-1.26,41.25-1.646,63.324-1.646,21.325,0,42,.361,61.673,1.524L611.743,76.813l-26.6,163.034c4.251,14.49,6.5,31.15,6.5,50.292,0,44.879-4.484,70.819-33.986,114.093s-117.9,92.11-205.014,92.11C261.565,496.341,171.833,443.285,141.915,403Z" transform="translate(488.358 232.581)" fill="#fff"/>
    <path id="Head_-_Outline" data-name="Head - Outline" d="M352.643,495.341a266.055,266.055,0,0,0,64.395-8.277,309.9,309.9,0,0,0,30.636-9.4c9.733-3.542,19.371-7.6,28.649-12.055,9.008-4.327,17.739-9.062,25.951-14.074a249.678,249.678,0,0,0,22.543-15.45,185.012,185.012,0,0,0,18.422-16.178,118.185,118.185,0,0,0,13.591-16.243c14.472-21.228,23.083-38.544,27.918-56.146,4.892-17.806,5.894-35.818,5.894-57.383a207.586,207.586,0,0,0-1.648-26.761,153.724,153.724,0,0,0-4.813-23.25l-.064-.218.037-.224L610.485,78.312,414.457,146.834l-.2-.012c-17.575-1.038-37.154-1.522-61.614-1.522-25.33,0-45.432.522-63.262,1.644l-.2.013-.191-.067L92.8,78.312l29.519,180.906-.023.153a212.684,212.684,0,0,0-2.1,30.727c0,6.838-.2,13.433-.4,19.811-.482,15.815-.937,30.752,1.828,45.737a102.487,102.487,0,0,0,6.938,22.729A122.024,122.024,0,0,0,142.718,402.4c7.471,10.06,18.723,20.912,32.541,31.381a277.756,277.756,0,0,0,22.985,15.6c8.451,5.156,17.379,10.033,26.538,14.5,9.567,4.661,19.458,8.905,29.4,12.614a319.015,319.015,0,0,0,31.57,9.961,268.181,268.181,0,0,0,66.892,8.888m0,1c-91.077,0-180.81-53.056-210.728-93.344s-22.721-71.979-22.721-112.9a212.5,212.5,0,0,1,2.113-30.873L91.543,76.813l197.775,69.133c20.034-1.26,41.25-1.646,63.324-1.646,21.325,0,42,.361,61.673,1.524L611.743,76.813l-26.6,163.034c4.251,14.49,6.5,31.15,6.5,50.292,0,44.878-4.484,70.819-33.986,114.093S439.76,496.341,352.643,496.341Z" transform="translate(488.358 232.581)"/>
    <path id="Mask" d="M617.677,466.333c8,55.523-2.153,66.536,0,97.2s14.55,68.045,38.143,70.135S688.978,590.2,712.048,571.9s13.137,11.175,36.054-11.434,53.671-47.151,77.972-80.218,19.232-52.053,19.232-52.053,4,87.053,31.376,111.969,78.132-12.3,78.132-12.3,52.518-2.794,81.279-8.947,34.922,15.366,36.834-3.446-6.747-68.245-8.129-116.517,19.764-60.544,18.04-70.022-182.779,50.05-182.779,50.05l-61.692-2.562-59.506,2.562L644.746,332.216s-64.509-18.96-59.061,9.228S609.679,410.81,617.677,466.333Z" fill="#3b2303"/>
    <path id="Path_28" data-name="Path 28" d="M735.037,528.374c9.044-9.5-25.922-8.064-32.645-8.061s-29.241,2.11-44.616,27.734-16.445,46.387-16.445,67.489,23.035,24.088,29.365,7.96-20.737-52.26-2.2-78.487S725.994,537.87,735.037,528.374Z"/>
    <path id="Right_M" data-name="Right M" d="M849.857,502.73l4.586-32.4-34.065,19.658-7.206-70.258-30.135,50.6" transform="translate(71.273)" fill="url(#linear-gradient)"/>
    <path id="Left_M" data-name="Left M" d="M787.622,502.73l-4.586-32.4L817.1,489.989l7.206-70.258,30.135,50.6" transform="translate(-31.727)" fill="url(#linear-gradient-2)"/>
    <path id="Right_Brown" data-name="Right Brown" d="M851.528,489.9c-6.8,10.966-11.332-15.623-11.562-23.583S813.52,485.209,800.281,473s-1.8-31.5-6.19-43.846c-5.718-1.818,4.9,10.5-4.391,16.191s-31.9-3.418-40.066-2.2c-13.849,2.072-29.606-5.076-31.491-12.72s11.58.408,26.979-7.9S770.9,401.543,784,392.294s17.911,6.543,22.8,20.988,1.313,22.146,3.424,30.8,1.026,12.708,17.31,1.267,18.032-17.258,14.988-3.8S858.325,478.935,851.528,489.9Z" transform="translate(90.107 -9.014)" fill="url(#linear-gradient-3)"/>
    <path id="Left_Brown" data-name="Left Brown" d="M744.333,500.636c5.066,12.139,8.447-17.294,8.619-26.106s19.713,20.913,29.582,7.4,6.363-56.831,16.759-61.739,8.413,37.427,18.736,39.721,24.326-16.644,25.731-25.107-8.632.452-20.11-8.744-19.216-23.237-28.979-33.476-13.351,7.243-16.993,23.233,5.323,13.406-5.865,22.484-4.974,12.666-17.113,0-38.868-29.512-36.6-14.614S739.267,488.5,744.333,500.636Z" fill="url(#linear-gradient-4)"/>
    <path id="Black" d="M762.82,377.445,752.035,380.3s-34.179,27.278-40.175,38.2,9.324.851,16.191,5.489-1.7,22.31-1.7,22.31,6.49-10.888,20.088,0,25.658,39.4,34.3,43.552c9.276,4.459-2.662-58.892-2.662-58.892s2.683-21.288,5.955-19.594,2.134,18.078,7.135,26.372,6.024-21.94,12.624-9.989,12.589,42,17.453,37.1-6.051-46.707-3.732-53.485,13.007,26.372,13.007,26.372,9.516-32.409,17.454-32.409,5.111,27.772,14.3,32.409,21.762-24.616,21.762-24.616-19.443,47.27-14.984,51.729,15.649-21.94,24.479-33.892,0,22.119,0,22.119,13.824-25.954,14.819-9.879-4.885,31.559,0,38.145,17.076-16.013,26.619-19.759,12.088-4.931,18.633-1.729,3.121-13.881,8.7-19.3,10.944-1.24,13.615-2.373c3.091-1.312.124-7.283-1.124-12.991s-27.194-15.11-26.185-32.406,26.154-38.5,26.154-38.5l-72.888,23.161H762.82Z"/>
    <path id="Right_Eye" data-name="Right Eye" d="M41.5,0C64.42,0,83,24,83,24S64.42,48,41.5,48,0,24,0,24,18.58,0,41.5,0Z" transform="matrix(0.985, -0.174, 0.174, 0.985, 872.463, 518.571)" fill="url(#radial-gradient)"/>
    <path id="Right_Eye_-_Outline" data-name="Right Eye - Outline" d="M41.5,3A36.154,36.154,0,0,0,26.654,6.451a59.868,59.868,0,0,0-12.519,7.807A81.351,81.351,0,0,0,3.916,24a81.35,81.35,0,0,0,10.22,9.742,59.868,59.868,0,0,0,12.519,7.807A36.154,36.154,0,0,0,41.5,45a36.154,36.154,0,0,0,14.846-3.451,59.868,59.868,0,0,0,12.519-7.807A81.351,81.351,0,0,0,79.084,24a81.35,81.35,0,0,0-10.22-9.742A59.868,59.868,0,0,0,56.346,6.451,36.154,36.154,0,0,0,41.5,3m0-3C64.42,0,83,24,83,24S64.42,48,41.5,48,0,24,0,24,18.58,0,41.5,0Z" transform="matrix(0.985, -0.174, 0.174, 0.985, 872.463, 518.571)"/>
    <path id="Left_Eye" data-name="Left Eye" d="M41.5,0C64.42,0,83,24,83,24S64.42,48,41.5,48,0,24,0,24,18.58,0,41.5,0Z" transform="matrix(0.985, 0.174, -0.174, 0.985, 733.798, 504.158)" fill="url(#radial-gradient)"/>
    <path id="Left_Eye_-_Outline" data-name="Left Eye - Outline" d="M41.5,3A36.154,36.154,0,0,0,26.654,6.451a59.868,59.868,0,0,0-12.519,7.807A81.351,81.351,0,0,0,3.916,24a81.35,81.35,0,0,0,10.22,9.742,59.868,59.868,0,0,0,12.519,7.807A36.154,36.154,0,0,0,41.5,45a36.154,36.154,0,0,0,14.846-3.451,59.868,59.868,0,0,0,12.519-7.807A81.351,81.351,0,0,0,79.084,24a81.35,81.35,0,0,0-10.22-9.742A59.868,59.868,0,0,0,56.346,6.451,36.154,36.154,0,0,0,41.5,3m0-3C64.42,0,83,24,83,24S64.42,48,41.5,48,0,24,0,24,18.58,0,41.5,0Z" transform="matrix(0.985, 0.174, -0.174, 0.985, 733.798, 504.158)"/>
    <g transform="matrix(1, 0, 0, 1, 567.95, 308.35)" filter="url(#Left)">
      <path id="Left-2" data-name="Left" d="M50.693,24.5c0,16.388-11.348,29.672-25.347,29.672S0,40.888,0,24.5" transform="translate(203.4 313.86) rotate(-26)" fill="url(#linear-gradient-5)"/>
    </g>
    <g id="Mouth">
      <g id="Left_Whiskers" data-name="Left Whiskers" transform="translate(18 -8)">
        <path id="Path_6" data-name="Path 6" d="M82.851,28.2c-.045-.034-4.605-3.405-11.638-7.587A147.815,147.815,0,0,0,44.052,7.791,154.408,154.408,0,0,0,14.255,1.4C5.924.4.052.251-.006.25l.012-.5C.064-.249,5.96-.1,14.314.9c4.906.589,9.69,1.354,14.217,2.272a130.526,130.526,0,0,1,15.68,4.142,127.331,127.331,0,0,1,14.857,6.16c4.091,1.989,8.265,4.247,12.407,6.71C78.528,24.382,83.1,27.766,83.149,27.8Z" transform="translate(709.5 612.5)" fill="#a8a7a7"/>
        <path id="Path_7" data-name="Path 7" d="M82.836,32.949c-.045-.039-4.605-3.984-11.638-8.877a139.516,139.516,0,0,0-27.159-15A135.186,135.186,0,0,0,14.25,1.6C5.921.425.051.252-.007.25l.014-.5c.059,0,5.956.176,14.312,1.35,4.908.69,9.692,1.584,14.22,2.659A115.692,115.692,0,0,1,44.223,8.606a117.794,117.794,0,0,1,14.859,7.208c4.091,2.328,8.265,4.969,12.408,7.851,7.053,4.908,11.629,8.867,11.674,8.906Z" transform="translate(723 607.74)" fill="#a8a7a7"/>
        <path id="Path_8" data-name="Path 8" d="M82.835,33.271c-.045-.04-4.605-4.024-11.638-8.965A139.13,139.13,0,0,0,44.039,9.158,134.094,134.094,0,0,0,14.257,1.61,141.925,141.925,0,0,0-.007.25l.014-.5A142.4,142.4,0,0,1,14.32,1.114c4.908.7,9.692,1.6,14.221,2.685A114.864,114.864,0,0,1,44.224,8.693a117.306,117.306,0,0,1,14.859,7.279c4.091,2.351,8.266,5.018,12.408,7.929,7.053,4.956,11.629,8.954,11.674,8.994Z" transform="translate(723 623.917)" fill="#a8a7a7"/>
        <path id="Path_10" data-name="Path 10" d="M82.843,30.694c-.045-.037-4.605-3.709-11.638-8.265A142.8,142.8,0,0,0,44.045,8.463,143.486,143.486,0,0,0,14.259,1.5C5.928.413.052.251-.006.25l.013-.5c.059,0,5.955.164,14.31,1.257,4.907.642,9.691,1.475,14.219,2.475A122.067,122.067,0,0,1,44.218,7.994,121.733,121.733,0,0,1,59.076,14.7c4.091,2.167,8.265,4.626,12.407,7.31,7.053,4.569,11.629,8.255,11.674,8.292Z" transform="translate(710 626.5)" fill="#a8a7a7"/>
        <path id="Path_11" data-name="Path 11" d="M82.9,16.771c-.045-.02-4.606-2.012-11.641-4.484A206.236,206.236,0,0,0,44.083,4.708,250.263,250.263,0,0,0,14.271.93C5.934.339.055.251,0,.25L0-.25c.059,0,5.949.089,14.3.681A250.774,250.774,0,0,1,44.18,4.217a206.75,206.75,0,0,1,27.249,7.6c7.051,2.477,11.625,4.476,11.67,4.5Z" transform="translate(699 640.458)" fill="#a8a7a7"/>
        <circle id="Ellipse_4" data-name="Ellipse 4" cx="2" cy="2" r="2" transform="translate(791 639)" fill="#57370e"/>
        <path id="Ellipse_4_-_Outline" data-name="Ellipse 4 - Outline" d="M2,1A1,1,0,1,0,3,2,1,1,0,0,0,2,1M2,0A2,2,0,1,1,0,2,2,2,0,0,1,2,0Z" transform="translate(791 639)" fill="#57370e"/>
        <circle id="Ellipse_5" data-name="Ellipse 5" cx="2" cy="2" r="2" transform="translate(804 639)" fill="#57370e"/>
        <path id="Ellipse_5_-_Outline" data-name="Ellipse 5 - Outline" d="M2,1A1,1,0,1,0,3,2,1,1,0,0,0,2,1M2,0A2,2,0,1,1,0,2,2,2,0,0,1,2,0Z" transform="translate(804 639)" fill="#57370e"/>
        <circle id="Ellipse_6" data-name="Ellipse 6" cx="2" cy="2" r="2" transform="translate(804 654)" fill="#57370e"/>
        <path id="Ellipse_6_-_Outline" data-name="Ellipse 6 - Outline" d="M2,1A1,1,0,1,0,3,2,1,1,0,0,0,2,1M2,0A2,2,0,1,1,0,2,2,2,0,0,1,2,0Z" transform="translate(804 654)" fill="#57370e"/>
        <circle id="Ellipse_7" data-name="Ellipse 7" cx="2" cy="2" r="2" transform="translate(791 654)" fill="#57370e"/>
        <path id="Ellipse_7_-_Outline" data-name="Ellipse 7 - Outline" d="M2,1A1,1,0,1,0,3,2,1,1,0,0,0,2,1M2,0A2,2,0,1,1,0,2,2,2,0,0,1,2,0Z" transform="translate(791 654)" fill="#57370e"/>
        <circle id="Ellipse_8" data-name="Ellipse 8" cx="2" cy="2" r="2" transform="translate(778 654)" fill="#57370e"/>
        <path id="Ellipse_8_-_Outline" data-name="Ellipse 8 - Outline" d="M2,1A1,1,0,1,0,3,2,1,1,0,0,0,2,1M2,0A2,2,0,1,1,0,2,2,2,0,0,1,2,0Z" transform="translate(778 654)" fill="#57370e"/>
      </g>
      <g id="Right_Whiskers" data-name="Right Whiskers">
        <g transform="matrix(1, 0, 0, 1, 567.95, 308.35)" filter="url(#Right)">
          <path id="Right-2" data-name="Right" d="M50.693,29.672C50.693,13.285,39.345,0,25.347,0S0,13.285,0,29.672" transform="matrix(-0.9, -0.44, 0.44, -0.9, 320.79, 362.55)" fill="url(#linear-gradient-6)"/>
        </g>
        <g id="Group_4" data-name="Group 4" transform="translate(860.737 599.74)">
          <path id="Path_6-2" data-name="Path 6" d="M.149,28.2l-.3-.4c.045-.034,4.621-3.418,11.674-7.612,4.142-2.463,8.316-4.721,12.407-6.71a127.331,127.331,0,0,1,14.857-6.16,130.526,130.526,0,0,1,15.68-4.142C59,2.257,63.779,1.493,68.686.9,77.04-.1,82.936-.249,82.994-.25l.012.5c-.058,0-5.935.15-14.267,1.151a154.4,154.4,0,0,0-29.791,6.39A147.815,147.815,0,0,0,11.787,20.613C4.754,24.8.194,28.167.149,28.2Z" transform="translate(15.5 4.76)" fill="#a8a7a7"/>
          <path id="Path_7-2" data-name="Path 7" d="M.164,32.949l-.328-.378c.045-.039,4.621-4,11.674-8.906,4.142-2.882,8.317-5.524,12.408-7.851A117.794,117.794,0,0,1,38.777,8.606,115.692,115.692,0,0,1,54.46,3.759C58.989,2.684,63.773,1.79,68.681,1.1,77.037-.074,82.934-.248,82.993-.25l.014.5c-.058,0-5.934.176-14.264,1.347A135.178,135.178,0,0,0,38.96,9.071,139.524,139.524,0,0,0,11.8,24.076C4.765,28.968.209,32.91.164,32.949Z" transform="translate(2)" fill="#a8a7a7"/>
          <path id="Path_8-2" data-name="Path 8" d="M.165,33.271l-.33-.376c.045-.04,4.621-4.038,11.674-8.994,4.142-2.911,8.317-5.578,12.408-7.929A117.306,117.306,0,0,1,38.776,8.693,114.864,114.864,0,0,1,54.46,3.8C58.988,2.713,63.773,1.81,68.68,1.114A142.4,142.4,0,0,1,82.993-.25l.014.5A141.925,141.925,0,0,0,68.743,1.61,134.094,134.094,0,0,0,38.961,9.158,139.137,139.137,0,0,0,11.8,24.31C4.766,29.251.21,33.231.165,33.271Z" transform="translate(2 16.177)" fill="#a8a7a7"/>
          <path id="Path_10-2" data-name="Path 10" d="M.157,30.694l-.314-.389c.045-.037,4.621-3.723,11.674-8.292,4.142-2.683,8.316-5.143,12.407-7.31a121.733,121.733,0,0,1,14.858-6.71A122.067,122.067,0,0,1,54.464,3.482c4.528-1,9.312-1.833,14.219-2.475C77.038-.086,82.935-.248,82.994-.25l.013.5c-.058,0-5.934.164-14.265,1.254A143.486,143.486,0,0,0,38.955,8.463,142.8,142.8,0,0,0,11.795,22.43C4.762,26.985.2,30.658.157,30.694Z" transform="translate(15 18.76)" fill="#a8a7a7"/>
          <path id="Path_11-2" data-name="Path 11" d="M.1,16.771l-.2-.458c.045-.02,4.62-2.018,11.67-4.5a206.751,206.751,0,0,1,27.249-7.6A250.774,250.774,0,0,1,68.7.431c8.35-.592,14.24-.68,14.3-.681L83,.25c-.058,0-5.938.089-14.274.68A250.263,250.263,0,0,0,38.917,4.708a206.243,206.243,0,0,0-27.181,7.581C4.7,14.76.146,16.751.1,16.771Z" transform="translate(26 32.719)" fill="#a8a7a7"/>
          <circle id="Ellipse_4-2" data-name="Ellipse 4" cx="2" cy="2" r="2" transform="translate(13 31.26)" fill="#57370e"/>
          <path id="Ellipse_4_-_Outline-2" data-name="Ellipse 4 - Outline" d="M2,1A1,1,0,1,0,3,2,1,1,0,0,0,2,1M2,0A2,2,0,1,1,0,2,2,2,0,0,1,2,0Z" transform="translate(13 31.26)" fill="#57370e"/>
          <circle id="Ellipse_5-2" data-name="Ellipse 5" cx="2" cy="2" r="2" transform="translate(0 31.26)" fill="#57370e"/>
          <path id="Ellipse_5_-_Outline-2" data-name="Ellipse 5 - Outline" d="M2,1A1,1,0,1,0,3,2,1,1,0,0,0,2,1M2,0A2,2,0,1,1,0,2,2,2,0,0,1,2,0Z" transform="translate(0 31.26)" fill="#57370e"/>
          <circle id="Ellipse_6-2" data-name="Ellipse 6" cx="2" cy="2" r="2" transform="translate(0 46.26)" fill="#57370e"/>
          <path id="Ellipse_6_-_Outline-2" data-name="Ellipse 6 - Outline" d="M2,1A1,1,0,1,0,3,2,1,1,0,0,0,2,1M2,0A2,2,0,1,1,0,2,2,2,0,0,1,2,0Z" transform="translate(0 46.26)" fill="#57370e"/>
          <circle id="Ellipse_7-2" data-name="Ellipse 7" cx="2" cy="2" r="2" transform="translate(13 46.26)" fill="#57370e"/>
          <path id="Ellipse_7_-_Outline-2" data-name="Ellipse 7 - Outline" d="M2,1A1,1,0,1,0,3,2,1,1,0,0,0,2,1M2,0A2,2,0,1,1,0,2,2,2,0,0,1,2,0Z" transform="translate(13 46.26)" fill="#57370e"/>
          <circle id="Ellipse_8-2" data-name="Ellipse 8" cx="2" cy="2" r="2" transform="translate(26 46.26)" fill="#57370e"/>
          <path id="Ellipse_8_-_Outline-2" data-name="Ellipse 8 - Outline" d="M2,1A1,1,0,1,0,3,2,1,1,0,0,0,2,1M2,0A2,2,0,1,1,0,2,2,2,0,0,1,2,0Z" transform="translate(26 46.26)" fill="#57370e"/>
        </g>
      </g>
      <path id="Path_3" data-name="Path 3" d="M811.868,682.284q-1.945,0-3.772-.106a41.385,41.385,0,0,1-11.026-1.986,31.834,31.834,0,0,1-9-4.938,42.04,42.04,0,0,1-6.462-6.242,42.928,42.928,0,0,1-5.224-7.646l.895-.447a42.812,42.812,0,0,0,5.112,7.469c3.077,3.652,8.18,8.5,15.01,10.859,6.86,2.369,15.488,2.241,21.518,1.717a92.7,92.7,0,0,0,11.6-1.732l.062-.014.064,0h0c.056,0,2.483-.026,5.276-2.931,2.894-3.01,5.128-7.9,6.641-14.529,2.047-8.973,2.7-20.962,1.945-35.635l1-.052c.764,14.824.093,26.942-1.993,36.016-1.565,6.807-3.9,11.84-6.936,14.96-2.88,2.958-5.424,3.159-5.886,3.17a94.551,94.551,0,0,1-11.667,1.74C816.536,682.176,814.144,682.284,811.868,682.284Z" transform="translate(0 -5.023)"/>
      <path id="Path_4" data-name="Path 4" d="M810.265,682.284c-2.276,0-4.667-.108-7.148-.324a94.551,94.551,0,0,1-11.667-1.74c-.461-.011-3.006-.211-5.886-3.17-3.037-3.12-5.371-8.153-6.936-14.96-2.087-9.075-2.757-21.192-1.993-36.016l1,.052c-.759,14.731-.1,26.756,1.969,35.741,1.524,6.626,3.77,11.5,6.678,14.487,2.816,2.892,5.19,2.869,5.216,2.868l.064,0,.062.014a92.7,92.7,0,0,0,11.6,1.732c6.03.524,14.658.651,21.518-1.717,6.84-2.362,11.947-7.22,15.027-10.88a42.683,42.683,0,0,0,5.095-7.448l.895.447a42.928,42.928,0,0,1-5.224,7.646,42.04,42.04,0,0,1-6.462,6.242,31.834,31.834,0,0,1-9,4.938,41.385,41.385,0,0,1-11.026,1.986Q812.212,682.284,810.265,682.284Z" transform="translate(68.479 -5.023)"/>
    </g>
    <g id="Nose">
      <path id="Polygon_3" data-name="Polygon 3" d="M12.064,5.763a4,4,0,0,1,6.872,0l8.459,14.188A4,4,0,0,1,23.959,26H7.041a4,4,0,0,1-3.436-6.048Z" transform="translate(861 631) rotate(180)" fill="#fbdede"/>
      <g id="Group_2" data-name="Group 2" transform="translate(0.235)">
        <rect id="Rectangle_1" data-name="Rectangle 1" width="10" height="4" rx="2" transform="matrix(0.588, 0.809, -0.809, 0.588, 837.511, 606.838)" fill="#be7979"/>
        <rect id="Rectangle_2" data-name="Rectangle 2" width="10" height="4" rx="2" transform="matrix(0.588, -0.809, 0.809, 0.588, 847.389, 614.928)" fill="#be7979"/>
      </g>
    </g>
    <ellipse id="Ellipse_2" data-name="Ellipse 2" cx="12" cy="23.5" rx="12" ry="23.5" transform="translate(758 511)"/>
    <ellipse id="Ellipse_3" data-name="Ellipse 3" cx="12" cy="23.5" rx="12" ry="23.5" transform="translate(906 511)"/>
    <path id="brow_1" data-name="brow 1" d="M0,27.5a.5.5,0,0,1-.477-.35.5.5,0,0,1,.327-.627l86-27a.5.5,0,0,1,.627.327.5.5,0,0,1-.327.627l-86,27A.5.5,0,0,1,0,27.5Z" transform="translate(725.5 477.5)" fill="#fff"/>
    <path id="brow_2" data-name="brow 2" d="M82,.5H0v-1H82Z" transform="translate(880.5 496.5)" fill="#fff"/>
    <path id="Polygon_4" data-name="Polygon 4" d="M67.5,0,135,114H0Z" transform="translate(567.949 395.122) rotate(-40)" fill="url(#linear-gradient-7)"/>
    <path id="Polygon_5" data-name="Polygon 5" d="M67.5,0,135,114H0Z" transform="translate(1010.778 309.395) rotate(40)" fill="url(#linear-gradient-7)"/>
    <g id="Group_5" data-name="Group 5" transform="translate(-66.614 136.267) rotate(-11)" opacity="0.24">
      <path id="Path_12" data-name="Path 12" d="M58.5,15.03c-.032-.018-3.251-1.8-8.217-4.012A122.637,122.637,0,0,0,31.11,4.238,141.361,141.361,0,0,0,10.072.859C4.187.329.037.251,0,.25L0-.25c.041,0,4.206.08,10.107.61a141.872,141.872,0,0,1,21.12,3.393A123.149,123.149,0,0,1,50.5,10.564c4.984,2.22,8.218,4.011,8.25,4.029Z" transform="translate(674.341 366.953) rotate(180)" fill="#fff"/>
      <path id="Path_13" data-name="Path 13" d="M58.5,15.03c-.032-.018-3.251-1.8-8.217-4.012A122.637,122.637,0,0,0,31.11,4.238,141.361,141.361,0,0,0,10.072.859C4.187.329.037.251,0,.25L0-.25c.041,0,4.206.08,10.107.61a141.872,141.872,0,0,1,21.12,3.393A123.149,123.149,0,0,1,50.5,10.564c4.984,2.22,8.218,4.011,8.25,4.029Z" transform="translate(743.116 410.846) rotate(180)" fill="#fff"/>
      <path id="Path_14" data-name="Path 14" d="M58.5,15.03c-.032-.018-3.251-1.8-8.217-4.012A122.637,122.637,0,0,0,31.11,4.238,141.361,141.361,0,0,0,10.072.859C4.187.329.037.251,0,.25L0-.25c.041,0,4.206.08,10.107.61a141.872,141.872,0,0,1,21.12,3.393A123.149,123.149,0,0,1,50.5,10.564c4.984,2.22,8.218,4.011,8.25,4.029Z" transform="translate(723.251 399.821) rotate(180)" fill="#fff"/>
      <path id="Path_15" data-name="Path 15" d="M58.5,15.03c-.032-.018-3.251-1.8-8.217-4.012A122.637,122.637,0,0,0,31.11,4.238,141.361,141.361,0,0,0,10.072.859C4.187.329.037.251,0,.25L0-.25c.041,0,4.206.08,10.107.61a141.872,141.872,0,0,1,21.12,3.393A123.149,123.149,0,0,1,50.5,10.564c4.984,2.22,8.218,4.011,8.25,4.029Z" transform="translate(710.863 390.8) rotate(180)" fill="#fff"/>
      <path id="Path_16" data-name="Path 16" d="M58.5,15.03c-.032-.018-3.251-1.8-8.217-4.012A122.637,122.637,0,0,0,31.11,4.238,141.361,141.361,0,0,0,10.072.859C4.187.329.037.251,0,.25L0-.25c.041,0,4.206.08,10.107.61a141.872,141.872,0,0,1,21.12,3.393A123.149,123.149,0,0,1,50.5,10.564c4.984,2.22,8.218,4.011,8.25,4.029Z" transform="translate(743.116 405.455) rotate(180)" fill="#fff"/>
      <path id="Path_17" data-name="Path 17" d="M58.5,15.03c-.032-.018-3.251-1.8-8.217-4.012A122.637,122.637,0,0,0,31.11,4.238,141.361,141.361,0,0,0,10.072.859C4.187.329.037.251,0,.25L0-.25c.041,0,4.206.08,10.107.61a141.872,141.872,0,0,1,21.12,3.393A123.149,123.149,0,0,1,50.5,10.564c4.984,2.22,8.218,4.011,8.25,4.029Z" transform="translate(706.075 395.251) rotate(180)" fill="#fff"/>
      <path id="Path_18" data-name="Path 18" d="M58.5,15.03c-.032-.018-3.251-1.8-8.217-4.012A122.637,122.637,0,0,0,31.11,4.238,141.361,141.361,0,0,0,10.072.859C4.187.329.037.251,0,.25L0-.25c.041,0,4.206.08,10.107.61a141.872,141.872,0,0,1,21.12,3.393A123.149,123.149,0,0,1,50.5,10.564c4.984,2.22,8.218,4.011,8.25,4.029Z" transform="translate(712.465 388.644) rotate(180)" fill="#fff"/>
      <path id="Path_19" data-name="Path 19" d="M54.481,15.026c-.03-.018-3.028-1.8-7.653-4.011A109.167,109.167,0,0,0,28.971,4.237,123.35,123.35,0,0,0,9.374.858C3.895.329.034.251,0,.25L0-.25c.039,0,3.919.08,9.418.61A123.853,123.853,0,0,1,29.1,3.754,109.678,109.678,0,0,1,47.05,10.566c4.643,2.22,7.657,4.012,7.687,4.03Z" transform="translate(696.625 389.862) rotate(180)" fill="#fff"/>
      <path id="Path_20" data-name="Path 20" d="M58.5,15.03c-.032-.018-3.251-1.8-8.217-4.012A122.637,122.637,0,0,0,31.11,4.238,141.361,141.361,0,0,0,10.072.859C4.187.329.037.251,0,.25L0-.25c.041,0,4.206.08,10.107.61a141.872,141.872,0,0,1,21.12,3.393A123.149,123.149,0,0,1,50.5,10.564c4.984,2.22,8.218,4.011,8.25,4.029Z" transform="translate(703.822 385.787) rotate(180)" fill="#fff"/>
      <path id="Path_21" data-name="Path 21" d="M58.5,15.03c-.032-.018-3.251-1.8-8.217-4.012A122.637,122.637,0,0,0,31.11,4.238,141.361,141.361,0,0,0,10.072.859C4.187.329.037.251,0,.25L0-.25c.041,0,4.206.08,10.107.61a141.872,141.872,0,0,1,21.12,3.393A123.149,123.149,0,0,1,50.5,10.564c4.984,2.22,8.218,4.011,8.25,4.029Z" transform="translate(691.71 380.587) rotate(180)" fill="#fff"/>
      <path id="Path_22" data-name="Path 22" d="M54.481,15.026c-.03-.018-3.028-1.8-7.653-4.011A109.167,109.167,0,0,0,28.971,4.237,123.35,123.35,0,0,0,9.374.858C3.895.329.034.251,0,.25L0-.25c.039,0,3.919.08,9.418.61A123.853,123.853,0,0,1,29.1,3.754,109.678,109.678,0,0,1,47.05,10.566c4.643,2.22,7.657,4.012,7.687,4.03Z" transform="translate(677.695 373.181) rotate(180)" fill="#fff"/>
      <path id="Path_23" data-name="Path 23" d="M54.481,15.026c-.03-.018-3.028-1.8-7.653-4.011A109.167,109.167,0,0,0,28.971,4.237,123.35,123.35,0,0,0,9.374.858C3.895.329.034.251,0,.25L0-.25c.039,0,3.919.08,9.418.61A123.853,123.853,0,0,1,29.1,3.754,109.678,109.678,0,0,1,47.05,10.566c4.643,2.22,7.657,4.012,7.687,4.03Z" transform="translate(712.872 397.407) rotate(180)" fill="#fff"/>
      <path id="Path_24" data-name="Path 24" d="M54.481,15.026c-.03-.018-3.028-1.8-7.653-4.011A109.167,109.167,0,0,0,28.971,4.237,123.35,123.35,0,0,0,9.374.858C3.895.329.034.251,0,.25L0-.25c.039,0,3.919.08,9.418.61A123.853,123.853,0,0,1,29.1,3.754,109.678,109.678,0,0,1,47.05,10.566c4.643,2.22,7.657,4.012,7.687,4.03Z" transform="translate(701.45 390.8) rotate(180)" fill="#fff"/>
      <path id="Path_25" data-name="Path 25" d="M54.481,15.026c-.03-.018-3.028-1.8-7.653-4.011A109.167,109.167,0,0,0,28.971,4.237,123.35,123.35,0,0,0,9.374.858C3.895.329.034.251,0,.25L0-.25c.039,0,3.919.08,9.418.61A123.853,123.853,0,0,1,29.1,3.754,109.678,109.678,0,0,1,47.05,10.566c4.643,2.22,7.657,4.012,7.687,4.03Z" transform="translate(733.703 410.846) rotate(180)" fill="#fff"/>
      <path id="Path_26" data-name="Path 26" d="M58.5,15.03c-.032-.018-3.251-1.8-8.217-4.012A122.637,122.637,0,0,0,31.11,4.238,141.361,141.361,0,0,0,10.072.859C4.187.329.037.251,0,.25L0-.25c.041,0,4.206.08,10.107.61a141.872,141.872,0,0,1,21.12,3.393A123.149,123.149,0,0,1,50.5,10.564c4.984,2.22,8.218,4.011,8.25,4.029Z" transform="translate(726.227 407.042) rotate(180)" fill="#fff"/>
      <path id="Path_27" data-name="Path 27" d="M58.5,15.03c-.032-.018-3.251-1.8-8.217-4.012A122.637,122.637,0,0,0,31.11,4.238,141.361,141.361,0,0,0,10.072.859C4.187.329.037.251,0,.25L0-.25c.041,0,4.206.08,10.107.61a141.872,141.872,0,0,1,21.12,3.393A123.149,123.149,0,0,1,50.5,10.564c4.984,2.22,8.218,4.011,8.25,4.029Z" transform="translate(723.251 414.91) rotate(180)" fill="#fff"/>
    </g>
    <g id="Group_6" data-name="Group 6" transform="translate(1068.041 426.069) rotate(-169)" opacity="0.24">
      <path id="Path_12-2" data-name="Path 12" d="M0,15.061,0,14.561c.041,0,4.192-.079,10.076-.609A141.36,141.36,0,0,0,31.11,10.573a122.638,122.638,0,0,0,19.177-6.78C55.251,1.582,58.471-.2,58.5-.219l.243.437c-.032.018-3.267,1.809-8.25,4.029a123.149,123.149,0,0,1-19.263,6.81,141.872,141.872,0,0,1-21.12,3.393C4.21,14.981.046,15.06,0,15.061Z" transform="translate(58.624 62.767) rotate(180)" fill="#fff"/>
      <path id="Path_13-2" data-name="Path 13" d="M0,15.061,0,14.561c.041,0,4.192-.079,10.076-.609A141.36,141.36,0,0,0,31.11,10.573a122.638,122.638,0,0,0,19.177-6.78C55.251,1.582,58.471-.2,58.5-.219l.243.437c-.032.018-3.267,1.809-8.25,4.029a123.149,123.149,0,0,1-19.263,6.81,141.872,141.872,0,0,1-21.12,3.393C4.21,14.981.046,15.06,0,15.061Z" transform="translate(127.399 18.875) rotate(180)" fill="#fff"/>
      <path id="Path_14-2" data-name="Path 14" d="M0,15.061,0,14.561c.041,0,4.192-.079,10.076-.609A141.36,141.36,0,0,0,31.11,10.573a122.638,122.638,0,0,0,19.177-6.78C55.251,1.582,58.471-.2,58.5-.219l.243.437c-.032.018-3.267,1.809-8.25,4.029a123.149,123.149,0,0,1-19.263,6.81,141.872,141.872,0,0,1-21.12,3.393C4.21,14.981.046,15.06,0,15.061Z" transform="translate(107.534 29.9) rotate(180)" fill="#fff"/>
      <path id="Path_15-2" data-name="Path 15" d="M0,15.061,0,14.561c.041,0,4.192-.079,10.076-.609A141.36,141.36,0,0,0,31.11,10.573a122.638,122.638,0,0,0,19.177-6.78C55.251,1.582,58.471-.2,58.5-.219l.243.437c-.032.018-3.267,1.809-8.25,4.029a123.149,123.149,0,0,1-19.263,6.81,141.872,141.872,0,0,1-21.12,3.393C4.21,14.981.046,15.06,0,15.061Z" transform="translate(95.146 38.921) rotate(180)" fill="#fff"/>
      <path id="Path_16-2" data-name="Path 16" d="M0,15.061,0,14.561c.041,0,4.192-.079,10.076-.609A141.36,141.36,0,0,0,31.11,10.573a122.638,122.638,0,0,0,19.177-6.78C55.251,1.582,58.471-.2,58.5-.219l.243.437c-.032.018-3.267,1.809-8.25,4.029a123.149,123.149,0,0,1-19.263,6.81,141.872,141.872,0,0,1-21.12,3.393C4.21,14.981.046,15.06,0,15.061Z" transform="translate(127.399 24.266) rotate(180)" fill="#fff"/>
      <path id="Path_17-2" data-name="Path 17" d="M0,15.061,0,14.561c.041,0,4.192-.079,10.076-.609A141.36,141.36,0,0,0,31.11,10.573a122.638,122.638,0,0,0,19.177-6.78C55.251,1.582,58.471-.2,58.5-.219l.243.437c-.032.018-3.267,1.809-8.25,4.029a123.149,123.149,0,0,1-19.263,6.81,141.872,141.872,0,0,1-21.12,3.393C4.21,14.981.046,15.06,0,15.061Z" transform="translate(90.358 34.47) rotate(180)" fill="#fff"/>
      <path id="Path_18-2" data-name="Path 18" d="M0,15.061,0,14.561c.041,0,4.192-.079,10.076-.609A141.36,141.36,0,0,0,31.11,10.573a122.638,122.638,0,0,0,19.177-6.78C55.251,1.582,58.471-.2,58.5-.219l.243.437c-.032.018-3.267,1.809-8.25,4.029a123.149,123.149,0,0,1-19.263,6.81,141.872,141.872,0,0,1-21.12,3.393C4.21,14.981.046,15.06,0,15.061Z" transform="translate(96.749 41.077) rotate(180)" fill="#fff"/>
      <path id="Path_19-2" data-name="Path 19" d="M0,15.061l-.01-.5c.038,0,3.9-.079,9.384-.609a123.341,123.341,0,0,0,19.591-3.378A109.166,109.166,0,0,0,46.829,3.8C51.453,1.586,54.452-.2,54.481-.215l.256.429c-.03.018-3.044,1.81-7.687,4.03A109.678,109.678,0,0,1,29.1,11.057,123.853,123.853,0,0,1,9.422,14.45C3.924,14.981.043,15.06,0,15.061Z" transform="translate(80.908 39.859) rotate(180)" fill="#fff"/>
      <path id="Path_20-2" data-name="Path 20" d="M0,15.061,0,14.561c.041,0,4.192-.079,10.076-.609A141.36,141.36,0,0,0,31.11,10.573a122.638,122.638,0,0,0,19.177-6.78C55.251,1.582,58.471-.2,58.5-.219l.243.437c-.032.018-3.267,1.809-8.25,4.029a123.149,123.149,0,0,1-19.263,6.81,141.872,141.872,0,0,1-21.12,3.393C4.21,14.981.046,15.06,0,15.061Z" transform="translate(88.105 43.934) rotate(180)" fill="#fff"/>
      <path id="Path_21-2" data-name="Path 21" d="M0,15.061,0,14.561c.041,0,4.192-.079,10.076-.609A141.36,141.36,0,0,0,31.11,10.573a122.638,122.638,0,0,0,19.177-6.78C55.251,1.582,58.471-.2,58.5-.219l.243.437c-.032.018-3.267,1.809-8.25,4.029a123.149,123.149,0,0,1-19.263,6.81,141.872,141.872,0,0,1-21.12,3.393C4.21,14.981.046,15.06,0,15.061Z" transform="translate(75.994 49.134) rotate(180)" fill="#fff"/>
      <path id="Path_22-2" data-name="Path 22" d="M0,15.061l-.01-.5c.038,0,3.9-.079,9.384-.609a123.341,123.341,0,0,0,19.591-3.378A109.166,109.166,0,0,0,46.829,3.8C51.453,1.586,54.452-.2,54.481-.215l.256.429c-.03.018-3.044,1.81-7.687,4.03A109.678,109.678,0,0,1,29.1,11.057,123.853,123.853,0,0,1,9.422,14.45C3.924,14.981.043,15.06,0,15.061Z" transform="translate(61.979 56.539) rotate(180)" fill="#fff"/>
      <path id="Path_23-2" data-name="Path 23" d="M0,15.061l-.01-.5c.038,0,3.9-.079,9.384-.609a123.341,123.341,0,0,0,19.591-3.378A109.166,109.166,0,0,0,46.829,3.8C51.453,1.586,54.452-.2,54.481-.215l.256.429c-.03.018-3.044,1.81-7.687,4.03A109.678,109.678,0,0,1,29.1,11.057,123.853,123.853,0,0,1,9.422,14.45C3.924,14.981.043,15.06,0,15.061Z" transform="translate(97.155 32.314) rotate(180)" fill="#fff"/>
      <path id="Path_24-2" data-name="Path 24" d="M0,15.061l-.01-.5c.038,0,3.9-.079,9.384-.609a123.341,123.341,0,0,0,19.591-3.378A109.166,109.166,0,0,0,46.829,3.8C51.453,1.586,54.452-.2,54.481-.215l.256.429c-.03.018-3.044,1.81-7.687,4.03A109.678,109.678,0,0,1,29.1,11.057,123.853,123.853,0,0,1,9.422,14.45C3.924,14.981.043,15.06,0,15.061Z" transform="translate(85.733 38.921) rotate(180)" fill="#fff"/>
      <path id="Path_25-2" data-name="Path 25" d="M0,15.061l-.01-.5c.038,0,3.9-.079,9.384-.609a123.341,123.341,0,0,0,19.591-3.378A109.166,109.166,0,0,0,46.829,3.8C51.453,1.586,54.452-.2,54.481-.215l.256.429c-.03.018-3.044,1.81-7.687,4.03A109.678,109.678,0,0,1,29.1,11.057,123.853,123.853,0,0,1,9.422,14.45C3.924,14.981.043,15.06,0,15.061Z" transform="translate(117.986 18.875) rotate(180)" fill="#fff"/>
      <path id="Path_26-2" data-name="Path 26" d="M0,15.061,0,14.561c.041,0,4.192-.079,10.076-.609A141.36,141.36,0,0,0,31.11,10.573a122.638,122.638,0,0,0,19.177-6.78C55.251,1.582,58.471-.2,58.5-.219l.243.437c-.032.018-3.267,1.809-8.25,4.029a123.149,123.149,0,0,1-19.263,6.81,141.872,141.872,0,0,1-21.12,3.393C4.21,14.981.046,15.06,0,15.061Z" transform="translate(110.51 22.678) rotate(180)" fill="#fff"/>
      <path id="Path_27-2" data-name="Path 27" d="M0,15.061,0,14.561c.041,0,4.192-.079,10.076-.609A141.36,141.36,0,0,0,31.11,10.573a122.638,122.638,0,0,0,19.177-6.78C55.251,1.582,58.471-.2,58.5-.219l.243.437c-.032.018-3.267,1.809-8.25,4.029a123.149,123.149,0,0,1-19.263,6.81,141.872,141.872,0,0,1-21.12,3.393C4.21,14.981.046,15.06,0,15.061Z" transform="translate(107.534 14.811) rotate(180)" fill="#fff"/>
    </g>
    <path id="Path_29" data-name="Path 29" d="M667.766,522.989s29.986-1.605,43.674,11.846,97.48-21.4,97.48-10.328c0,10.579-34.484,17.142-47.091,13.172-.3-.083-18.344,7.986-33.328,6.876s-10.1,2.452-26.607-11.316S667.766,522.989,667.766,522.989Z" transform="translate(246 -11.469)"/>
  </g>
</svg>
